<?xml version="1.0" encoding="UTF-8"?>
<!DOCTYPE svg PUBLIC "-//W3C//DTD SVG 1.1//EN" "http://www.w3.org/Graphics/SVG/1.1/DTD/svg11.dtd">
<svg xmlns="http://www.w3.org/2000/svg" version="1.1" width="675px" height="424px" style="shape-rendering:geometricPrecision; text-rendering:geometricPrecision; image-rendering:optimizeQuality; fill-rule:evenodd; clip-rule:evenodd" xmlns:xlink="http://www.w3.org/1999/xlink">
<g><path style="opacity:0.996" fill="#393b4d" d="M 402.5,52.5 C 402.262,55.4082 403.262,57.7415 405.5,59.5C 403.759,62.7638 404.759,64.5972 408.5,65C 407.704,67.7398 407.704,70.5731 408.5,73.5C 408.402,75.6193 407.569,77.286 406,78.5C 403.563,76.8598 401.73,74.6931 400.5,72C 400.888,70.1918 400.888,68.5252 400.5,67C 399.167,66 397.833,65 396.5,64C 396.957,63.586 397.291,63.086 397.5,62.5C 396.5,61.1667 395.5,59.8333 394.5,58.5C 395.609,56.7859 394.942,56.1192 392.5,56.5C 392.439,53.9505 391.106,52.4505 388.5,52C 389.601,49.7076 388.768,48.2076 386,47.5C 385.07,45.4569 384.57,43.6236 384.5,42C 380.669,40.1993 376.669,39.1993 372.5,39C 370.015,37.5126 367.848,35.6792 366,33.5C 365.667,33.8333 365.333,34.1667 365,34.5C 363.565,32.7887 361.731,31.622 359.5,31C 354.461,31.0002 349.295,30.8336 344,30.5C 340.5,30.8333 337,31.1667 333.5,31.5C 333.137,32.1835 332.804,32.8501 332.5,33.5C 325.706,34.2304 320.039,37.0637 315.5,42C 308.398,44.7447 303.398,49.5781 300.5,56.5C 297.766,59.7888 295.766,63.4555 294.5,67.5C 294.489,65.9826 293.823,64.8159 292.5,64C 293.833,62.3333 293.833,60.6667 292.5,59C 294.886,58.7165 295.552,57.7165 294.5,56C 299.907,48.9797 298.24,47.1464 289.5,50.5C 288.472,52.4401 288.472,54.4401 289.5,56.5C 287.888,60.0584 286.555,63.7251 285.5,67.5C 286.734,70.3705 285.734,72.3705 282.5,73.5C 284.973,75.2417 284.973,77.075 282.5,79C 283.899,83.2756 283.232,87.2756 280.5,91C 268.831,91.6297 257.165,92.2964 245.5,93C 240.657,93.7688 235.99,94.9355 231.5,96.5C 229.568,95.4798 227.568,95.3131 225.5,96C 226.673,99.1103 226.173,99.277 224,96.5C 223.692,97.3081 223.192,97.9747 222.5,98.5C 220.999,97.2485 219.332,96.2485 217.5,95.5C 216.414,99.1551 216.414,102.822 217.5,106.5C 216.778,106.082 216.278,105.416 216,104.5C 215.502,101.183 215.335,97.8499 215.5,94.5C 222.025,94.4503 228.358,93.617 234.5,92C 249.483,90.9451 264.483,90.4451 279.5,90.5C 279.391,83.8039 279.724,77.1373 280.5,70.5C 280.89,67.1606 281.39,63.8273 282,60.5C 284.547,57.2739 286.047,53.6072 286.5,49.5C 291.976,42.5234 297.976,36.0234 304.5,30C 336.137,11.3308 365.804,13.9975 393.5,38C 395.359,41.3933 397.692,44.3933 400.5,47C 401.32,48.8003 401.986,50.6336 402.5,52.5 Z"/></g>
<g><path style="opacity:0.024" fill="#dfdfe3" d="M 397.5,77.5 C 397.5,79.1667 397.5,80.8333 397.5,82.5C 386.986,82.1724 376.653,82.5058 366.5,83.5C 365.5,83.5 364.5,83.5 363.5,83.5C 347.784,84.8233 332.117,85.1566 316.5,84.5C 314.025,85.1314 311.691,86.1314 309.5,87.5C 306.5,87.5 303.5,87.5 300.5,87.5C 298.5,87.5 296.5,87.5 294.5,87.5C 294.334,82.1563 294.501,76.8229 295,71.5C 296.772,66.4622 298.605,61.4622 300.5,56.5C 303.398,49.5781 308.398,44.7447 315.5,42C 320.039,37.0637 325.706,34.2304 332.5,33.5C 348.874,31.1769 363.874,34.6769 377.5,44C 381.667,48.1667 385.833,52.3333 390,56.5C 393.644,63.1156 396.144,70.1156 397.5,77.5 Z M 316.5,84.5 C 309.91,84.189 303.41,84.5223 297,85.5C 296.296,63.0657 306.13,47.2323 326.5,38C 356.206,30.6067 378.04,40.44 392,67.5C 393.644,71.2197 394.81,75.053 395.5,79C 368.946,79.8839 342.612,81.7172 316.5,84.5 Z"/></g>
<g><path style="opacity:0.994" fill="#36384b" d="M 294.5,67.5 C 294.167,68.8333 293.833,70.1667 293.5,71.5C 291.903,72.7373 290.737,74.404 290,76.5C 289.172,80.8713 289.339,85.2047 290.5,89.5C 293.788,93.097 296.954,93.4304 300,90.5C 306.32,90.0195 312.987,90.0195 320,90.5C 321.261,90.2409 322.261,89.5742 323,88.5C 326.762,88.7856 330.595,88.7856 334.5,88.5C 342.017,91.3223 349.517,91.6557 357,89.5C 359.26,89.4709 361.593,89.8042 364,90.5C 366.015,88.3855 368.515,87.0522 371.5,86.5C 377.361,86.8953 383.361,87.3953 389.5,88C 390.362,90.7344 391.195,90.9011 392,88.5C 394.082,90.6792 393.582,92.0126 390.5,92.5C 383.974,92.3083 377.64,91.8083 371.5,91C 373.883,91.065 374.55,91.8983 373.5,93.5C 371.979,93.8797 370.313,94.0464 368.5,94C 367.167,94.6667 366.167,95.6667 365.5,97C 353.637,97.2322 341.97,98.0656 330.5,99.5C 319.145,100.251 307.811,101.251 296.5,102.5C 296.735,108.849 297.235,115.183 298,121.5C 298.383,122.056 298.883,122.389 299.5,122.5C 299.46,125.881 299.793,129.214 300.5,132.5C 307.032,133.455 311.532,137.122 314,143.5C 314.667,148.167 314.667,152.833 314,157.5C 311.489,159.679 309.322,162.179 307.5,165C 300.254,168.158 292.92,168.325 285.5,165.5C 276.275,156.069 275.108,145.736 282,134.5C 283.011,133.663 284.178,133.33 285.5,133.5C 285.002,128.848 284.669,124.181 284.5,119.5C 283.906,114.154 283.239,108.82 282.5,103.5C 273.502,103.881 264.502,104.214 255.5,104.5C 249.833,104.759 244.166,105.092 238.5,105.5C 235.387,105.438 232.554,104.771 230,103.5C 229.203,106.22 228.037,108.72 226.5,111C 227.782,113.79 226.948,115.957 224,117.5C 223.333,118.833 223.333,120.167 224,121.5C 224.889,120.112 225.389,120.278 225.5,122C 225.389,123.722 224.889,123.888 224,122.5C 223.313,124.568 223.48,126.568 224.5,128.5C 224,129.5 223.5,130.5 223,131.5C 222.987,127.617 221.82,124.284 219.5,121.5C 218.833,121.5 218.5,121.167 218.5,120.5C 218.46,115.807 218.127,111.141 217.5,106.5C 216.414,102.822 216.414,99.1551 217.5,95.5C 219.332,96.2485 220.999,97.2485 222.5,98.5C 223.192,97.9747 223.692,97.3081 224,96.5C 226.173,99.277 226.673,99.1103 225.5,96C 227.568,95.3131 229.568,95.4798 231.5,96.5C 235.99,94.9355 240.657,93.7688 245.5,93C 257.165,92.2964 268.831,91.6297 280.5,91C 283.232,87.2756 283.899,83.2756 282.5,79C 284.973,77.075 284.973,75.2417 282.5,73.5C 285.734,72.3705 286.734,70.3705 285.5,67.5C 286.555,63.7251 287.888,60.0584 289.5,56.5C 288.472,54.4401 288.472,52.4401 289.5,50.5C 298.24,47.1464 299.907,48.9797 294.5,56C 295.552,57.7165 294.886,58.7165 292.5,59C 293.833,60.6667 293.833,62.3333 292.5,64C 293.823,64.8159 294.489,65.9826 294.5,67.5 Z"/></g>
<g><path style="opacity:0.357" fill="#94969e" d="M 300.5,56.5 C 298.605,61.4622 296.772,66.4622 295,71.5C 294.501,76.8229 294.334,82.1563 294.5,87.5C 296.5,87.5 298.5,87.5 300.5,87.5C 298.393,88.4682 296.059,88.8016 293.5,88.5C 293.5,82.8333 293.5,77.1667 293.5,71.5C 293.833,70.1667 294.167,68.8333 294.5,67.5C 295.766,63.4555 297.766,59.7888 300.5,56.5 Z"/></g>
<g><path style="opacity:0.241" fill="#aaabb2" d="M 280.5,70.5 C 279.724,77.1373 279.391,83.8039 279.5,90.5C 264.483,90.4451 249.483,90.9451 234.5,92C 228.358,93.617 222.025,94.4503 215.5,94.5C 215.335,97.8499 215.502,101.183 216,104.5C 216.278,105.416 216.778,106.082 217.5,106.5C 218.127,111.141 218.46,115.807 218.5,120.5C 217.45,115.918 216.283,111.251 215,106.5C 214.201,101.913 214.368,97.4132 215.5,93C 236.394,90.4475 257.394,89.2809 278.5,89.5C 278.334,83.4908 278.501,77.4908 279,71.5C 279.383,70.944 279.883,70.6107 280.5,70.5 Z"/></g>
<g><path style="opacity:0.302" fill="#96979f" d="M 426.5,80.5 C 426.833,80.5 427.167,80.5 427.5,80.5C 440.615,82.023 453.949,83.1897 467.5,84C 464.994,85.2985 462.327,86.2985 459.5,87C 445.332,89.4275 430.999,91.2608 416.5,92.5C 416.5,95.5 416.5,98.5 416.5,101.5C 414.989,98.4557 414.322,95.1224 414.5,91.5C 431.55,89.231 448.55,86.731 465.5,84C 447.995,83.8316 430.662,83.3316 413.5,82.5C 418.294,83.0969 422.627,82.4302 426.5,80.5 Z"/></g>
<g><path style="opacity:0.298" fill="#8a8a93" d="M 400.5,95.5 C 391.485,96.4464 382.485,97.613 373.5,99C 361.811,99.3065 350.144,99.9731 338.5,101C 335.949,101.002 333.949,101.836 332.5,103.5C 331.833,103.5 331.167,103.5 330.5,103.5C 327.854,102.836 325.021,102.502 322,102.5C 318.748,102.519 315.915,103.186 313.5,104.5C 313.167,104.5 312.833,104.5 312.5,104.5C 307.695,103.513 302.695,103.179 297.5,103.5C 297.92,109.863 298.587,116.196 299.5,122.5C 298.883,122.389 298.383,122.056 298,121.5C 297.235,115.183 296.735,108.849 296.5,102.5C 307.811,101.251 319.145,100.251 330.5,99.5C 352.491,99.6024 374.325,97.9358 396,94.5C 397.707,94.5085 399.207,94.8418 400.5,95.5 Z"/></g>
<g><path style="opacity:0.031" fill="#e0e0e2" d="M 330.5,103.5 C 324.879,104.354 319.212,104.687 313.5,104.5C 315.915,103.186 318.748,102.519 322,102.5C 325.021,102.502 327.854,102.836 330.5,103.5 Z"/></g>
<g><path style="opacity:0.357" fill="#7e7f8a" d="M 284.5,119.5 C 283.778,119.082 283.278,118.416 283,117.5C 282.265,113.187 281.765,108.853 281.5,104.5C 266.131,105.467 251.131,107.133 236.5,109.5C 236.167,109.5 235.833,109.5 235.5,109.5C 234.791,108.596 233.791,108.263 232.5,108.5C 232.5,111.5 232.5,114.5 232.5,117.5C 231.475,114.026 230.808,110.36 230.5,106.5C 239.062,106.843 247.395,106.176 255.5,104.5C 264.502,104.214 273.502,103.881 282.5,103.5C 283.239,108.82 283.906,114.154 284.5,119.5 Z"/></g>
<g><path style="opacity:0.99" fill="#3a3c4c" d="M 402.5,52.5 C 403.5,52.5 404.5,52.5 405.5,52.5C 407.948,58.2247 410.115,64.2247 412,70.5C 412.176,74.6877 412.676,78.6877 413.5,82.5C 430.662,83.3316 447.995,83.8316 465.5,84C 448.55,86.731 431.55,89.231 414.5,91.5C 414.322,95.1224 414.989,98.4557 416.5,101.5C 417.54,107.116 418.207,112.783 418.5,118.5C 424.284,120.438 428.784,124.104 432,129.5C 435.075,148.828 426.909,156.995 407.5,154C 395.941,147.823 392.608,138.656 397.5,126.5C 399.463,125.04 401.296,123.373 403,121.5C 403.537,114.137 403.203,106.804 402,99.5C 401.617,98.944 401.117,98.6107 400.5,98.5C 400.5,97.5 400.5,96.5 400.5,95.5C 399.207,94.8418 397.707,94.5085 396,94.5C 374.325,97.9358 352.491,99.6024 330.5,99.5C 341.97,98.0656 353.637,97.2322 365.5,97C 366.167,95.6667 367.167,94.6667 368.5,94C 370.313,94.0464 371.979,93.8797 373.5,93.5C 374.55,91.8983 373.883,91.065 371.5,91C 377.64,91.8083 383.974,92.3083 390.5,92.5C 393.582,92.0126 394.082,90.6792 392,88.5C 391.195,90.9011 390.362,90.7344 389.5,88C 383.361,87.3953 377.361,86.8953 371.5,86.5C 368.515,87.0522 366.015,88.3855 364,90.5C 361.593,89.8042 359.26,89.4709 357,89.5C 349.517,91.6557 342.017,91.3223 334.5,88.5C 330.595,88.7856 326.762,88.7856 323,88.5C 322.261,89.5742 321.261,90.2409 320,90.5C 312.987,90.0195 306.32,90.0195 300,90.5C 296.954,93.4304 293.788,93.097 290.5,89.5C 289.339,85.2047 289.172,80.8713 290,76.5C 290.737,74.404 291.903,72.7373 293.5,71.5C 293.5,77.1667 293.5,82.8333 293.5,88.5C 296.059,88.8016 298.393,88.4682 300.5,87.5C 303.5,87.5 306.5,87.5 309.5,87.5C 327.17,86.8054 344.836,85.9721 362.5,85C 363.056,84.6174 363.389,84.1174 363.5,83.5C 364.5,83.5 365.5,83.5 366.5,83.5C 377.167,83.5 387.833,83.5 398.5,83.5C 398.795,81.2646 398.461,79.2646 397.5,77.5C 396.144,70.1156 393.644,63.1156 390,56.5C 385.833,52.3333 381.667,48.1667 377.5,44C 363.874,34.6769 348.874,31.1769 332.5,33.5C 332.804,32.8501 333.137,32.1835 333.5,31.5C 337,31.1667 340.5,30.8333 344,30.5C 349.295,30.8336 354.461,31.0002 359.5,31C 361.731,31.622 363.565,32.7887 365,34.5C 365.333,34.1667 365.667,33.8333 366,33.5C 367.848,35.6792 370.015,37.5126 372.5,39C 376.669,39.1993 380.669,40.1993 384.5,42C 384.57,43.6236 385.07,45.4569 386,47.5C 388.768,48.2076 389.601,49.7076 388.5,52C 391.106,52.4505 392.439,53.9505 392.5,56.5C 394.942,56.1192 395.609,56.7859 394.5,58.5C 395.5,59.8333 396.5,61.1667 397.5,62.5C 397.291,63.086 396.957,63.586 396.5,64C 397.833,65 399.167,66 400.5,67C 400.888,68.5252 400.888,70.1918 400.5,72C 401.73,74.6931 403.563,76.8598 406,78.5C 407.569,77.286 408.402,75.6193 408.5,73.5C 407.704,70.5731 407.704,67.7398 408.5,65C 404.759,64.5972 403.759,62.7638 405.5,59.5C 403.262,57.7415 402.262,55.4082 402.5,52.5 Z"/></g>
<g><path style="opacity:0.729" fill="#7d7e87" d="M 363.5,83.5 C 363.389,84.1174 363.056,84.6174 362.5,85C 344.836,85.9721 327.17,86.8054 309.5,87.5C 311.691,86.1314 314.025,85.1314 316.5,84.5C 332.117,85.1566 347.784,84.8233 363.5,83.5 Z"/></g>
<g><path style="opacity:0.424" fill="#868992" d="M 397.5,77.5 C 398.461,79.2646 398.795,81.2646 398.5,83.5C 387.833,83.5 377.167,83.5 366.5,83.5C 376.653,82.5058 386.986,82.1724 397.5,82.5C 397.5,80.8333 397.5,79.1667 397.5,77.5 Z"/></g>
<g><path style="opacity:0.014" fill="#f7f7f8" d="M 206.5,118.5 C 207.489,123.975 207.822,129.642 207.5,135.5C 206.778,135.082 206.278,134.416 206,133.5C 205.184,128.316 205.35,123.316 206.5,118.5 Z"/></g>
<g><path style="opacity:0.145" fill="#e0e0e4" d="M 427.5,80.5 C 441.504,80.3334 455.504,80.5001 469.5,81C 473.655,84.4011 472.988,86.7344 467.5,88C 451.206,90.4945 434.872,92.6611 418.5,94.5C 418.806,101.565 419.64,108.565 421,115.5C 436.491,124.316 439.491,136.316 430,151.5C 419.973,159.307 409.806,159.474 399.5,152C 389.635,139.77 390.302,128.103 401.5,117C 399.894,110.591 398.894,104.091 398.5,97.5C 376.596,100.475 354.596,102.475 332.5,103.5C 333.949,101.836 335.949,101.002 338.5,101C 350.144,99.9731 361.811,99.3065 373.5,99C 382.485,97.613 391.485,96.4464 400.5,95.5C 400.5,96.5 400.5,97.5 400.5,98.5C 401.7,105.797 402.2,113.131 402,120.5C 399.873,122.114 398.373,124.114 397.5,126.5C 392.608,138.656 395.941,147.823 407.5,154C 426.909,156.995 435.075,148.828 432,129.5C 428.784,124.104 424.284,120.438 418.5,118.5C 418.207,112.783 417.54,107.116 416.5,101.5C 416.5,98.5 416.5,95.5 416.5,92.5C 430.999,91.2608 445.332,89.4275 459.5,87C 462.327,86.2985 464.994,85.2985 467.5,84C 453.949,83.1897 440.615,82.023 427.5,80.5 Z"/></g>
<g><path style="opacity:0.416" fill="#8d8e98" d="M 400.5,98.5 C 401.117,98.6107 401.617,98.944 402,99.5C 403.203,106.804 403.537,114.137 403,121.5C 401.296,123.373 399.463,125.04 397.5,126.5C 398.373,124.114 399.873,122.114 402,120.5C 402.2,113.131 401.7,105.797 400.5,98.5 Z"/></g>
<g><path style="opacity:0.018" fill="#f8f8f9" d="M 234.5,114.5 C 237.794,131.606 240.46,148.939 242.5,166.5C 241.203,164.629 240.203,162.629 239.5,160.5C 239.5,159.5 239.5,158.5 239.5,157.5C 236.912,143.801 234.912,129.968 233.5,116C 234.056,115.617 234.389,115.117 234.5,114.5 Z"/></g>
<g><path style="opacity:0.498" fill="#a9aab1" d="M 203.5,108.5 C 204.319,111.305 204.819,114.305 205,117.5C 205.383,116.944 205.883,116.611 206.5,116.5C 206.5,117.167 206.5,117.833 206.5,118.5C 205.35,123.316 205.184,128.316 206,133.5C 206.278,134.416 206.778,135.082 207.5,135.5C 207.5,136.5 207.5,137.5 207.5,138.5C 206.348,144.98 205.515,151.646 205,158.5C 204.722,159.416 204.222,160.082 203.5,160.5C 204.673,143.173 204.673,125.84 203.5,108.5 Z"/></g>
<g><path style="opacity:0.996" fill="#3c3e4e" d="M 255.5,104.5 C 247.395,106.176 239.062,106.843 230.5,106.5C 230.808,110.36 231.475,114.026 232.5,117.5C 233.907,125.136 234.907,132.97 235.5,141C 237.22,146.543 238.553,152.043 239.5,157.5C 239.5,158.5 239.5,159.5 239.5,160.5C 241.817,182.219 244.65,203.886 248,225.5C 249.307,230.19 250.474,234.856 251.5,239.5C 251.833,240.5 252.5,241.167 253.5,241.5C 252.961,246.742 252.961,252.075 253.5,257.5C 253.5,258.833 253.5,260.167 253.5,261.5C 252.768,260.192 251.934,258.858 251,257.5C 250.65,252.816 250.15,248.149 249.5,243.5C 247.348,235.365 245.681,226.865 244.5,218C 244.833,217.667 245.167,217.333 245.5,217C 244.57,215.806 243.903,214.473 243.5,213C 244.562,209.211 244.729,205.377 244,201.5C 242.806,199.377 242.14,197.043 242,194.5C 239.729,192.741 238.729,190.741 239,188.5C 237.984,187.366 237.317,187.699 237,189.5C 235.951,188.483 234.784,188.316 233.5,189C 234.171,194.857 235.171,200.69 236.5,206.5C 236.069,207.293 235.735,208.127 235.5,209C 236.738,211.545 238.071,214.045 239.5,216.5C 239.31,226.121 239.31,235.454 239.5,244.5C 240.529,244.296 241.529,244.796 242.5,246C 241.552,246.483 240.552,246.649 239.5,246.5C 241.436,256.818 242.769,267.318 243.5,278C 245.028,281.556 246.695,285.056 248.5,288.5C 247.781,291.313 247.114,294.146 246.5,297C 246.892,298.011 247.559,298.511 248.5,298.5C 247.822,305.117 247.822,311.784 248.5,318.5C 240.659,265.797 232.492,213.13 224,160.5C 223.083,147.389 221.583,134.389 219.5,121.5C 221.82,124.284 222.987,127.617 223,131.5C 223.5,130.5 224,129.5 224.5,128.5C 223.48,126.568 223.313,124.568 224,122.5C 224.889,123.888 225.389,123.722 225.5,122C 225.389,120.278 224.889,120.112 224,121.5C 223.333,120.167 223.333,118.833 224,117.5C 226.948,115.957 227.782,113.79 226.5,111C 228.037,108.72 229.203,106.22 230,103.5C 232.554,104.771 235.387,105.438 238.5,105.5C 244.166,105.092 249.833,104.759 255.5,104.5 Z"/></g>
<g><path style="opacity:0.11" fill="#b9bac1" d="M 235.5,109.5 C 234.549,110.919 234.216,112.585 234.5,114.5C 234.389,115.117 234.056,115.617 233.5,116C 234.912,129.968 236.912,143.801 239.5,157.5C 238.553,152.043 237.22,146.543 235.5,141C 234.907,132.97 233.907,125.136 232.5,117.5C 232.5,114.5 232.5,111.5 232.5,108.5C 233.791,108.263 234.791,108.596 235.5,109.5 Z"/></g>
<g><path style="opacity:0.02" fill="#efeff1" d="M 207.5,138.5 C 208.075,140.076 208.408,141.742 208.5,143.5C 205.356,173.206 202.356,202.873 199.5,232.5C 198.957,232.44 198.624,232.107 198.5,231.5C 200.063,220.579 200.73,209.579 200.5,198.5C 201.98,185.882 202.98,173.216 203.5,160.5C 204.222,160.082 204.722,159.416 205,158.5C 205.515,151.646 206.348,144.98 207.5,138.5 Z"/></g>
<g><path style="opacity:0.043" fill="#dbdbdf" d="M 312.5,104.5 C 308.265,105.436 303.931,105.769 299.5,105.5C 300.773,112.804 301.94,120.138 303,127.5C 306.966,130.464 310.633,133.797 314,137.5C 319.687,148.484 318.187,158.317 309.5,167C 305.234,169.811 300.567,171.311 295.5,171.5C 295.333,183.171 295.5,194.838 296,206.5C 301.511,200.991 307.344,195.824 313.5,191C 318.351,190.826 323.018,190.326 327.5,189.5C 329.167,190.5 330.5,191.833 331.5,193.5C 325.491,193.334 319.491,193.501 313.5,194C 309.926,196.67 306.926,199.837 304.5,203.5C 302.246,204.415 300.246,205.748 298.5,207.5C 297.299,209.909 295.633,211.909 293.5,213.5C 292.501,199.85 292.167,186.183 292.5,172.5C 285.833,172.5 279.167,172.5 272.5,172.5C 271.833,172.5 271.167,172.5 270.5,172.5C 270.414,171.504 270.748,170.671 271.5,170C 276.833,169.667 282.167,169.333 287.5,169C 276.525,163 272.358,153.833 275,141.5C 276.608,137.957 278.942,134.957 282,132.5C 282.395,123.993 281.395,115.66 279,107.5C 278.275,106.941 277.442,106.608 276.5,106.5C 263.243,108.412 249.91,109.412 236.5,109.5C 251.131,107.133 266.131,105.467 281.5,104.5C 281.765,108.853 282.265,113.187 283,117.5C 283.278,118.416 283.778,119.082 284.5,119.5C 284.669,124.181 285.002,128.848 285.5,133.5C 284.178,133.33 283.011,133.663 282,134.5C 275.108,145.736 276.275,156.069 285.5,165.5C 292.92,168.325 300.254,168.158 307.5,165C 309.322,162.179 311.489,159.679 314,157.5C 314.667,152.833 314.667,148.167 314,143.5C 311.532,137.122 307.032,133.455 300.5,132.5C 299.793,129.214 299.46,125.881 299.5,122.5C 298.587,116.196 297.92,109.863 297.5,103.5C 302.695,103.179 307.695,103.513 312.5,104.5 Z"/></g>
<g><path style="opacity:0.996" fill="#45b453" d="M 351.5,180.5 C 351.813,183.247 351.48,185.914 350.5,188.5C 346.194,183.527 341.527,178.86 336.5,174.5C 335.479,175.002 335.312,175.668 336,176.5C 340.738,181.648 345.238,186.981 349.5,192.5C 347.39,193.891 345.057,194.558 342.5,194.5C 339.824,194.163 337.157,193.83 334.5,193.5C 330.838,189.308 327.672,184.641 325,179.5C 323.304,174.339 323.137,169.173 324.5,164C 330.423,163.451 336.089,164.451 341.5,167C 344.694,170.194 347.86,173.36 351,176.5C 351.49,177.793 351.657,179.127 351.5,180.5 Z"/></g>
<g><path style="opacity:0.996" fill="#43b451" d="M 385.5,184.5 C 381.194,188.836 376.194,191.836 370.5,193.5C 367.167,193.5 363.833,193.5 360.5,193.5C 365.517,188.483 370.183,183.149 374.5,177.5C 369.053,180.384 364.053,184.551 359.5,190C 358.056,190.781 356.723,190.614 355.5,189.5C 354.004,182.292 354.67,175.292 357.5,168.5C 357.751,166.83 358.418,165.33 359.5,164C 362.72,161.563 366.053,159.397 369.5,157.5C 372.765,157.701 375.431,156.534 377.5,154C 382.751,153.196 387.918,153.363 393,154.5C 393.667,157.833 393.667,161.167 393,164.5C 390.186,171.136 387.686,177.803 385.5,184.5 Z"/></g>
<g><path style="opacity:0.9" fill="#73bf7b" d="M 378.5,150.5 C 378.833,150.5 379.167,150.5 379.5,150.5C 384.056,152.442 389.056,153.108 394.5,152.5C 394.828,157.875 394.495,163.208 393.5,168.5C 392.034,172.064 390.868,175.73 390,179.5C 388.951,181.618 387.451,183.284 385.5,184.5C 387.686,177.803 390.186,171.136 393,164.5C 393.667,161.167 393.667,157.833 393,154.5C 387.918,153.363 382.751,153.196 377.5,154C 375.431,156.534 372.765,157.701 369.5,157.5C 372.684,155.273 375.684,152.94 378.5,150.5 Z"/></g>
<g><path style="opacity:0.993" fill="#36384b" d="M 303.5,258.5 C 307.468,257.234 311.468,257.234 315.5,258.5C 317.429,260.148 319.429,261.815 321.5,263.5C 321.291,264.086 320.957,264.586 320.5,265C 322.135,265.54 323.468,265.04 324.5,263.5C 328.399,264.819 329.399,267.319 327.5,271C 330.124,271.576 330.791,272.91 329.5,275C 332.913,276.269 335.079,278.769 336,282.5C 336.333,285.5 336.667,288.5 337,291.5C 339.135,293.367 340.635,295.7 341.5,298.5C 340.15,299.95 338.484,300.617 336.5,300.5C 333.168,304.758 329.168,308.425 324.5,311.5C 323.417,311.461 322.417,311.127 321.5,310.5C 317.494,311.738 313.494,312.738 309.5,313.5C 307.622,313.377 305.789,313.377 304,313.5C 303.333,312.833 302.667,312.167 302,311.5C 298.273,311.959 294.439,311.959 290.5,311.5C 290.5,312.833 290.5,314.167 290.5,315.5C 284.833,315.5 279.167,315.5 273.5,315.5C 273.333,269.832 273.5,224.165 274,178.5C 274.615,176.884 275.615,175.551 277,174.5C 280.425,175.095 283.925,175.262 287.5,175C 288.167,175.667 288.833,176.333 289.5,177C 289.598,184.63 289.431,192.463 289,200.5C 287.833,201.667 286.667,202.833 285.5,204C 287.667,208.5 289.834,213 292,217.5C 292.852,220.033 292.186,222.033 290,223.5C 288.163,223.335 286.163,222.668 284,221.5C 283.667,215.5 283.333,209.5 283,203.5C 282.107,204.711 281.274,204.711 280.5,203.5C 281.145,202.354 281.978,201.354 283,200.5C 283.831,193.808 283.664,187.142 282.5,180.5C 280.671,179.712 279.004,180.212 277.5,182C 278.818,190.435 279.485,199.102 279.5,208C 279.315,221.305 278.982,234.472 278.5,247.5C 279.111,259.495 279.611,271.495 280,283.5C 281.915,280.765 283.082,277.765 283.5,274.5C 282.325,274.719 281.325,274.386 280.5,273.5C 281.695,272.033 281.695,270.533 280.5,269C 280.93,267.566 281.764,266.399 283,265.5C 283.494,263.866 283.66,262.199 283.5,260.5C 282.5,260.5 281.5,260.5 280.5,260.5C 280.5,259.167 280.5,257.833 280.5,256.5C 281.5,256.5 282.5,256.5 283.5,256.5C 283.337,254.143 283.503,251.81 284,249.5C 285.585,248.624 286.585,247.291 287,245.5C 287.692,246.025 288.192,246.692 288.5,247.5C 287.617,248.548 286.95,249.715 286.5,251C 287.833,252.333 287.833,253.667 286.5,255C 288.222,258.675 290.222,262.175 292.5,265.5C 291.349,266.731 290.183,266.731 289,265.5C 286.945,266.672 286.278,268.339 287,270.5C 289.172,270.067 291.339,269.734 293.5,269.5C 294.631,266.745 296.298,264.411 298.5,262.5C 301.449,263.252 303.116,261.918 303.5,258.5 Z M 300.5,276.5 C 312.398,276.261 316.565,281.928 313,293.5C 309.95,297.13 306.117,298.297 301.5,297C 295.891,293.723 294.058,288.89 296,282.5C 297.332,280.34 298.832,278.34 300.5,276.5 Z"/></g>
<g><path style="opacity:0.251" fill="#d7f3da" d="M 378.5,150.5 C 375.684,152.94 372.684,155.273 369.5,157.5C 366.053,159.397 362.72,161.563 359.5,164C 358.418,165.33 357.751,166.83 357.5,168.5C 355.716,169.574 354.549,171.24 354,173.5C 353.667,176.167 353.333,178.833 353,181.5C 352.617,180.944 352.117,180.611 351.5,180.5C 351.657,179.127 351.49,177.793 351,176.5C 347.86,173.36 344.694,170.194 341.5,167C 336.089,164.451 330.423,163.451 324.5,164C 323.137,169.173 323.304,174.339 325,179.5C 327.672,184.641 330.838,189.308 334.5,193.5C 333.5,193.5 332.5,193.5 331.5,193.5C 330.5,191.833 329.167,190.5 327.5,189.5C 325.13,186.587 323.296,183.254 322,179.5C 321.21,173.448 321.376,167.448 322.5,161.5C 324.003,160.443 325.67,159.776 327.5,159.5C 337.401,160.568 345.567,164.901 352,172.5C 357.004,160.672 365.837,153.338 378.5,150.5 Z"/></g>
<g><path style="opacity:0.994" fill="#383b4c" d="M 272.5,172.5 C 279.167,172.5 285.833,172.5 292.5,172.5C 292.167,186.183 292.501,199.85 293.5,213.5C 295.633,211.909 297.299,209.909 298.5,207.5C 300.246,205.748 302.246,204.415 304.5,203.5C 308.5,202.344 311.5,199.844 313.5,196C 317,195.833 320.5,195.667 324,195.5C 327.902,195.512 331.402,196.179 334.5,197.5C 331.528,201.304 328.028,204.637 324,207.5C 321.665,212.012 318.832,216.179 315.5,220C 322.492,230.819 330.326,240.986 339,250.5C 339.483,251.448 339.649,252.448 339.5,253.5C 331.167,253.5 322.833,253.5 314.5,253.5C 310.763,247.07 306.263,241.07 301,235.5C 300.517,234.552 300.351,233.552 300.5,232.5C 297.644,233.414 295.144,235.081 293,237.5C 292.168,245.521 292.335,253.521 293.5,261.5C 294.107,261.376 294.44,261.043 294.5,260.5C 297.215,258.877 300.215,258.21 303.5,258.5C 303.116,261.918 301.449,263.252 298.5,262.5C 296.298,264.411 294.631,266.745 293.5,269.5C 291.339,269.734 289.172,270.067 287,270.5C 286.278,268.339 286.945,266.672 289,265.5C 290.183,266.731 291.349,266.731 292.5,265.5C 290.222,262.175 288.222,258.675 286.5,255C 287.833,253.667 287.833,252.333 286.5,251C 286.95,249.715 287.617,248.548 288.5,247.5C 288.192,246.692 287.692,246.025 287,245.5C 286.585,247.291 285.585,248.624 284,249.5C 283.503,251.81 283.337,254.143 283.5,256.5C 282.5,256.5 281.5,256.5 280.5,256.5C 280.5,257.833 280.5,259.167 280.5,260.5C 281.5,260.5 282.5,260.5 283.5,260.5C 283.66,262.199 283.494,263.866 283,265.5C 281.764,266.399 280.93,267.566 280.5,269C 281.695,270.533 281.695,272.033 280.5,273.5C 281.325,274.386 282.325,274.719 283.5,274.5C 283.082,277.765 281.915,280.765 280,283.5C 279.611,271.495 279.111,259.495 278.5,247.5C 278.982,234.472 279.315,221.305 279.5,208C 279.485,199.102 278.818,190.435 277.5,182C 279.004,180.212 280.671,179.712 282.5,180.5C 283.664,187.142 283.831,193.808 283,200.5C 281.978,201.354 281.145,202.354 280.5,203.5C 281.274,204.711 282.107,204.711 283,203.5C 283.333,209.5 283.667,215.5 284,221.5C 286.163,222.668 288.163,223.335 290,223.5C 292.186,222.033 292.852,220.033 292,217.5C 289.834,213 287.667,208.5 285.5,204C 286.667,202.833 287.833,201.667 289,200.5C 289.431,192.463 289.598,184.63 289.5,177C 288.833,176.333 288.167,175.667 287.5,175C 283.925,175.262 280.425,175.095 277,174.5C 275.615,175.551 274.615,176.884 274,178.5C 273.5,224.165 273.333,269.832 273.5,315.5C 279.167,315.5 284.833,315.5 290.5,315.5C 290.5,314.167 290.5,312.833 290.5,311.5C 294.439,311.959 298.273,311.959 302,311.5C 302.667,312.167 303.333,312.833 304,313.5C 305.789,313.377 307.622,313.377 309.5,313.5C 313.494,312.738 317.494,311.738 321.5,310.5C 322.417,311.127 323.417,311.461 324.5,311.5C 324.5,311.833 324.5,312.167 324.5,312.5C 316.254,317.598 307.254,318.765 297.5,316C 295.714,315.215 294.214,314.049 293,312.5C 292.79,314.058 292.29,315.391 291.5,316.5C 285.167,316.5 278.833,316.5 272.5,316.5C 272.5,268.5 272.5,220.5 272.5,172.5 Z"/></g>
<g><path style="opacity:0.063" fill="#d2f0d7" d="M 395.5,170.5 C 393.787,171.635 393.12,173.302 393.5,175.5C 391.406,183.393 386.739,189.06 379.5,192.5C 378.005,192.989 376.671,193.655 375.5,194.5C 373.833,194.5 372.167,194.5 370.5,194.5C 370.5,194.167 370.5,193.833 370.5,193.5C 376.194,191.836 381.194,188.836 385.5,184.5C 387.451,183.284 388.951,181.618 390,179.5C 390.868,175.73 392.034,172.064 393.5,168.5C 394.495,163.208 394.828,157.875 394.5,152.5C 389.056,153.108 384.056,152.442 379.5,150.5C 383.031,149.77 386.697,149.104 390.5,148.5C 392.614,149.034 394.448,150.034 396,151.5C 396.751,157.884 396.584,164.217 395.5,170.5 Z"/></g>
<g><path style="opacity:0.525" fill="#99d8a4" d="M 357.5,168.5 C 354.67,175.292 354.004,182.292 355.5,189.5C 356.723,190.614 358.056,190.781 359.5,190C 364.053,184.551 369.053,180.384 374.5,177.5C 370.183,183.149 365.517,188.483 360.5,193.5C 354.391,193.377 348.391,194.044 342.5,195.5C 340.097,195.552 337.764,195.219 335.5,194.5C 334.833,194.5 334.5,194.167 334.5,193.5C 337.157,193.83 339.824,194.163 342.5,194.5C 345.057,194.558 347.39,193.891 349.5,192.5C 345.238,186.981 340.738,181.648 336,176.5C 335.312,175.668 335.479,175.002 336.5,174.5C 341.527,178.86 346.194,183.527 350.5,188.5C 351.48,185.914 351.813,183.247 351.5,180.5C 352.117,180.611 352.617,180.944 353,181.5C 353.333,178.833 353.667,176.167 354,173.5C 354.549,171.24 355.716,169.574 357.5,168.5 Z"/></g>
<g><path style="opacity:0.318" fill="#aeafb5" d="M 239.5,160.5 C 240.203,162.629 241.203,164.629 242.5,166.5C 242.737,183.113 245.07,199.113 249.5,214.5C 250.313,222.821 250.98,231.154 251.5,239.5C 250.474,234.856 249.307,230.19 248,225.5C 244.65,203.886 241.817,182.219 239.5,160.5 Z"/></g>
<g><path style="opacity:0.677" fill="#676974" d="M 331.5,193.5 C 332.5,193.5 333.5,193.5 334.5,193.5C 334.5,194.167 334.833,194.5 335.5,194.5C 335.737,195.791 335.404,196.791 334.5,197.5C 331.402,196.179 327.902,195.512 324,195.5C 320.5,195.667 317,195.833 313.5,196C 311.5,199.844 308.5,202.344 304.5,203.5C 306.926,199.837 309.926,196.67 313.5,194C 319.491,193.501 325.491,193.334 331.5,193.5 Z"/></g>
<g><path style="opacity:0.753" fill="#577a67" d="M 360.5,193.5 C 363.833,193.5 367.167,193.5 370.5,193.5C 370.5,193.833 370.5,194.167 370.5,194.5C 366.199,195.773 361.865,195.773 357.5,194.5C 352.5,195.167 347.5,195.833 342.5,196.5C 342.5,196.167 342.5,195.833 342.5,195.5C 348.391,194.044 354.391,193.377 360.5,193.5 Z"/></g>
<g><path style="opacity:0.992" fill="#37394b" d="M 357.5,194.5 C 361.865,195.773 366.199,195.773 370.5,194.5C 372.167,194.5 373.833,194.5 375.5,194.5C 383.02,196.518 388.187,201.185 391,208.5C 392.355,223.464 392.855,238.464 392.5,253.5C 387.167,253.5 381.833,253.5 376.5,253.5C 375.5,253.5 374.5,253.5 373.5,253.5C 373.808,251.076 373.474,248.743 372.5,246.5C 370.816,249.678 368.149,251.345 364.5,251.5C 365.091,250.849 365.757,250.182 366.5,249.5C 363.199,246.21 359.699,245.21 356,246.5C 354.024,245.457 353.524,244.123 354.5,242.5C 359.833,241.833 365.167,241.167 370.5,240.5C 376.904,229.838 373.904,225.004 361.5,226C 360.421,225.044 359.255,224.211 358,223.5C 355.611,225.95 352.778,227.117 349.5,227C 350.227,225.601 350.727,224.101 351,222.5C 351.75,221.874 352.584,221.374 353.5,221C 359.833,220.667 366.167,220.333 372.5,220C 373.293,216.889 373.126,213.723 372,210.5C 369.979,211.236 368.479,210.403 367.5,208C 363.31,207.622 359.476,206.455 356,204.5C 353.888,206.922 351.888,206.922 350,204.5C 348.323,205.516 346.657,206.516 345,207.5C 343.169,205.429 341.336,203.262 339.5,201C 339.905,200.055 340.572,199.388 341.5,199C 347.035,197.786 352.368,196.286 357.5,194.5 Z"/></g>
<g><path style="opacity:0.027" fill="#f9f8fa" d="M 242.5,166.5 C 245.562,182.266 247.895,198.266 249.5,214.5C 245.07,199.113 242.737,183.113 242.5,166.5 Z"/></g>
<g><path style="opacity:0.024" fill="#fbfcfc" d="M 249.5,214.5 C 251.883,223.209 253.217,232.209 253.5,241.5C 252.5,241.167 251.833,240.5 251.5,239.5C 250.98,231.154 250.313,222.821 249.5,214.5 Z"/></g>
<g><path style="opacity:0.68" fill="#474956" d="M 203.5,108.5 C 204.673,125.84 204.673,143.173 203.5,160.5C 202.98,173.216 201.98,185.882 200.5,198.5C 199.872,206.21 198.872,213.877 197.5,221.5C 197.666,213.16 197.5,204.827 197,196.5C 195.759,195.062 195.259,193.562 195.5,192C 196.126,191.25 196.626,190.416 197,189.5C 197.333,183.167 197.667,176.833 198,170.5C 198.71,169.027 199.876,168.36 201.5,168.5C 200.415,154.133 200.415,140.133 201.5,126.5C 200.5,126.5 199.5,126.5 198.5,126.5C 197.348,131.792 195.515,136.792 193,141.5C 192.65,146.184 192.15,150.851 191.5,155.5C 191.621,156.894 191.954,158.228 192.5,159.5C 191.208,161.667 190.375,164 190,166.5C 188.626,182.516 187.959,198.516 188,214.5C 187.465,212.729 186.631,212.396 185.5,213.5C 185.361,218.782 185.695,223.949 186.5,229C 184.398,230.733 184.065,232.733 185.5,235C 183.914,239.181 182.914,243.514 182.5,248C 183.547,253.189 183.547,258.355 182.5,263.5C 182.722,265.055 183.389,266.389 184.5,267.5C 183.675,268.386 182.675,268.719 181.5,268.5C 179.721,287.563 177.388,306.563 174.5,325.5C 174.167,325.5 173.833,325.5 173.5,325.5C 174.442,310.127 175.775,294.793 177.5,279.5C 179.345,271.408 180.345,263.074 180.5,254.5C 183.334,217.169 186.501,179.836 190,142.5C 192.761,129.475 196.261,116.641 200.5,104C 200.68,101.759 201.513,101.259 203,102.5C 203.495,104.473 203.662,106.473 203.5,108.5 Z"/></g>
<g><path style="opacity:0.141" fill="#b9b9c0" d="M 342.5,221.5 C 343.483,220.15 344.816,219.15 346.5,218.5C 349.833,217.5 353.166,216.5 356.5,215.5C 360.184,215.316 363.684,215.649 367,216.5C 368.927,215.238 368.76,214.238 366.5,213.5C 365.609,212.89 364.609,212.557 363.5,212.5C 362.688,211.007 361.355,210.34 359.5,210.5C 355.197,211.428 350.864,212.094 346.5,212.5C 354.221,207.234 362.055,207.234 370,212.5C 371.128,214.345 371.628,216.345 371.5,218.5C 361.594,217.762 351.928,218.762 342.5,221.5 Z"/></g>
<g><path style="opacity:0.996" fill="#35374a" d="M 253.5,261.5 C 254.437,272.067 254.437,282.567 253.5,293C 257.089,298.361 258.089,304.194 256.5,310.5C 258.138,311.705 258.471,313.038 257.5,314.5C 259.647,317.128 260.98,320.128 261.5,323.5C 261.247,330.236 261.247,336.903 261.5,343.5C 260.746,346.777 260.246,350.11 260,353.5C 259.727,351.671 258.893,350.171 257.5,349C 256.861,346.858 256.861,344.525 257.5,342C 256.756,339.845 255.756,337.845 254.5,336C 254.833,334.333 255.167,332.667 255.5,331C 253.562,326.452 251.229,322.285 248.5,318.5C 247.822,311.784 247.822,305.117 248.5,298.5C 247.559,298.511 246.892,298.011 246.5,297C 247.114,294.146 247.781,291.313 248.5,288.5C 246.695,285.056 245.028,281.556 243.5,278C 242.769,267.318 241.436,256.818 239.5,246.5C 240.552,246.649 241.552,246.483 242.5,246C 241.529,244.796 240.529,244.296 239.5,244.5C 239.31,235.454 239.31,226.121 239.5,216.5C 238.071,214.045 236.738,211.545 235.5,209C 235.735,208.127 236.069,207.293 236.5,206.5C 235.171,200.69 234.171,194.857 233.5,189C 234.784,188.316 235.951,188.483 237,189.5C 237.317,187.699 237.984,187.366 239,188.5C 238.729,190.741 239.729,192.741 242,194.5C 242.14,197.043 242.806,199.377 244,201.5C 244.729,205.377 244.562,209.211 243.5,213C 243.903,214.473 244.57,215.806 245.5,217C 245.167,217.333 244.833,217.667 244.5,218C 245.681,226.865 247.348,235.365 249.5,243.5C 250.15,248.149 250.65,252.816 251,257.5C 251.934,258.858 252.768,260.192 253.5,261.5 Z"/></g>
<g><path style="opacity:0.995" fill="#35384a" d="M 197.5,221.5 C 196.164,239.877 194.497,258.211 192.5,276.5C 192.5,278.167 192.5,279.833 192.5,281.5C 191.883,281.611 191.383,281.944 191,282.5C 190.272,296.001 188.938,309.334 187,322.5C 185.319,330.168 183.319,337.501 181,344.5C 180.148,348.518 180.648,352.351 182.5,356C 181.688,362.777 179.521,368.944 176,374.5C 173.852,372.428 174.018,370.594 176.5,369C 175.376,368.751 174.376,368.251 173.5,367.5C 174.937,365.979 175.604,364.145 175.5,362C 173.53,355.754 173.53,349.587 175.5,343.5C 174.586,337.541 174.253,331.541 174.5,325.5C 177.388,306.563 179.721,287.563 181.5,268.5C 182.675,268.719 183.675,268.386 184.5,267.5C 183.389,266.389 182.722,265.055 182.5,263.5C 183.547,258.355 183.547,253.189 182.5,248C 182.914,243.514 183.914,239.181 185.5,235C 184.065,232.733 184.398,230.733 186.5,229C 185.695,223.949 185.361,218.782 185.5,213.5C 186.631,212.396 187.465,212.729 188,214.5C 187.959,198.516 188.626,182.516 190,166.5C 190.375,164 191.208,161.667 192.5,159.5C 191.954,158.228 191.621,156.894 191.5,155.5C 192.15,150.851 192.65,146.184 193,141.5C 195.515,136.792 197.348,131.792 198.5,126.5C 199.5,126.5 200.5,126.5 201.5,126.5C 200.415,140.133 200.415,154.133 201.5,168.5C 199.876,168.36 198.71,169.027 198,170.5C 197.667,176.833 197.333,183.167 197,189.5C 196.626,190.416 196.126,191.25 195.5,192C 195.259,193.562 195.759,195.062 197,196.5C 197.5,204.827 197.666,213.16 197.5,221.5 Z"/></g>
<g><path style="opacity:0.994" fill="#3d3f50" d="M 357.5,194.5 C 352.368,196.286 347.035,197.786 341.5,199C 340.572,199.388 339.905,200.055 339.5,201C 341.336,203.262 343.169,205.429 345,207.5C 346.657,206.516 348.323,205.516 350,204.5C 351.888,206.922 353.888,206.922 356,204.5C 359.476,206.455 363.31,207.622 367.5,208C 368.479,210.403 369.979,211.236 372,210.5C 373.126,213.723 373.293,216.889 372.5,220C 366.167,220.333 359.833,220.667 353.5,221C 352.584,221.374 351.75,221.874 351,222.5C 350.727,224.101 350.227,225.601 349.5,227C 352.778,227.117 355.611,225.95 358,223.5C 359.255,224.211 360.421,225.044 361.5,226C 373.904,225.004 376.904,229.838 370.5,240.5C 365.167,241.167 359.833,241.833 354.5,242.5C 353.524,244.123 354.024,245.457 356,246.5C 359.699,245.21 363.199,246.21 366.5,249.5C 365.757,250.182 365.091,250.849 364.5,251.5C 363.391,252.29 362.058,252.79 360.5,253C 342.164,256.321 333.664,248.821 335,230.5C 336.111,226.243 338.611,223.243 342.5,221.5C 351.928,218.762 361.594,217.762 371.5,218.5C 371.628,216.345 371.128,214.345 370,212.5C 362.055,207.234 354.221,207.234 346.5,212.5C 345.292,213.234 343.959,213.567 342.5,213.5C 340.01,208.836 338.344,203.836 337.5,198.5C 339.553,198.598 341.22,197.931 342.5,196.5C 347.5,195.833 352.5,195.167 357.5,194.5 Z M 358.5,232.5 C 362.182,232.335 365.848,232.501 369.5,233C 366.616,237.362 362.783,238.529 358,236.5C 357.421,235.072 357.588,233.738 358.5,232.5 Z"/></g>
<g><path style="opacity:0.015" fill="#dedfe2" d="M 335.5,194.5 C 337.764,195.219 340.097,195.552 342.5,195.5C 342.5,195.833 342.5,196.167 342.5,196.5C 341.22,197.931 339.553,198.598 337.5,198.5C 338.344,203.836 340.01,208.836 342.5,213.5C 343.959,213.567 345.292,213.234 346.5,212.5C 350.864,212.094 355.197,211.428 359.5,210.5C 361.355,210.34 362.688,211.007 363.5,212.5C 355.969,212.419 348.635,213.253 341.5,215C 339.372,210.626 336.872,206.46 334,202.5C 328.469,207.789 323.303,213.289 318.5,219C 322.264,225.101 326.431,230.934 331,236.5C 331.412,225.085 337.245,218.252 348.5,216C 354.647,215.162 360.647,214.329 366.5,213.5C 368.76,214.238 368.927,215.238 367,216.5C 363.684,215.649 360.184,215.316 356.5,215.5C 353.166,216.5 349.833,217.5 346.5,218.5C 344.816,219.15 343.483,220.15 342.5,221.5C 338.611,223.243 336.111,226.243 335,230.5C 333.664,248.821 342.164,256.321 360.5,253C 362.058,252.79 363.391,252.29 364.5,251.5C 368.149,251.345 370.816,249.678 372.5,246.5C 373.474,248.743 373.808,251.076 373.5,253.5C 374.5,253.5 375.5,253.5 376.5,253.5C 373.4,255.243 371.567,254.243 371,250.5C 369.351,251.648 367.851,252.981 366.5,254.5C 370.532,255.225 374.532,256.058 378.5,257C 380.996,258.331 382.996,260.164 384.5,262.5C 380.035,259.456 375.035,257.79 369.5,257.5C 361.967,256.277 354.3,256.443 346.5,258C 342.606,258.945 339.939,261.278 338.5,265C 340.856,268.904 342.523,273.071 343.5,277.5C 346.223,276.648 348.89,275.481 351.5,274C 356.833,273.333 362.167,273.333 367.5,274C 371.007,275.33 372.673,277.83 372.5,281.5C 362.72,281.08 353.053,281.914 343.5,284C 341.658,285.344 339.992,286.844 338.5,288.5C 337.644,283.099 336.477,277.765 335,272.5C 333.389,269.062 331.223,266.062 328.5,263.5C 328.5,262.5 328.5,261.5 328.5,260.5C 318.186,256.501 307.52,255.667 296.5,258C 295.619,258.708 294.953,259.542 294.5,260.5C 294.44,261.043 294.107,261.376 293.5,261.5C 292.335,253.521 292.168,245.521 293,237.5C 295.144,235.081 297.644,233.414 300.5,232.5C 300.351,233.552 300.517,234.552 301,235.5C 306.263,241.07 310.763,247.07 314.5,253.5C 322.833,253.5 331.167,253.5 339.5,253.5C 339.649,252.448 339.483,251.448 339,250.5C 330.326,240.986 322.492,230.819 315.5,220C 318.832,216.179 321.665,212.012 324,207.5C 328.028,204.637 331.528,201.304 334.5,197.5C 335.404,196.791 335.737,195.791 335.5,194.5 Z M 297.5,237.5 C 302.528,241.864 306.862,246.864 310.5,252.5C 305.593,253.029 300.926,254.362 296.5,256.5C 295.337,250.863 295.17,245.196 296,239.5C 296.717,238.956 297.217,238.289 297.5,237.5 Z M 328.5,260.5 C 327.251,258.864 325.584,257.697 323.5,257C 328.5,256.667 333.5,256.333 338.5,256C 339.667,255.5 340.5,254.667 341,253.5C 342.648,254.717 344.481,255.55 346.5,256C 339.717,256.455 335.884,259.955 335,266.5C 333.289,263.954 331.123,261.954 328.5,260.5 Z M 357.5,275.5 C 361.302,275.76 364.969,276.594 368.5,278C 361.043,278.255 353.71,278.922 346.5,280C 349.979,277.791 353.646,276.291 357.5,275.5 Z M 338.5,273.5 C 339.799,276.907 342.133,279.407 345.5,281C 344.128,281.402 342.795,281.902 341.5,282.5C 339.899,279.696 338.899,276.696 338.5,273.5 Z"/></g>
<g><path style="opacity:0.019" fill="#e2e2e6" d="M 357.5,229.5 C 362.167,229.5 366.833,229.5 371.5,229.5C 370.288,240.849 364.788,243.516 355,237.5C 353.837,234.029 354.67,231.362 357.5,229.5 Z M 358.5,232.5 C 357.588,233.738 357.421,235.072 358,236.5C 362.783,238.529 366.616,237.362 369.5,233C 365.848,232.501 362.182,232.335 358.5,232.5 Z"/></g>
<g><path style="opacity:0.016" fill="#fbfbfc" d="M 199.5,234.5 C 199.149,247.412 197.816,260.079 195.5,272.5C 195.809,261.815 196.476,251.148 197.5,240.5C 197.539,238.048 198.206,236.048 199.5,234.5 Z"/></g>
<g><path style="opacity:0.153" fill="#e2e2e6" d="M 462.5,281.5 C 461.505,293.322 461.172,305.322 461.5,317.5C 461.389,318.117 461.056,318.617 460.5,319C 453.5,319.667 446.5,319.667 439.5,319C 438.667,318.167 437.833,317.333 437,316.5C 438.058,304.433 437.558,292.433 435.5,280.5C 436.966,281.347 437.8,282.68 438,284.5C 438.17,295.341 438.67,306.008 439.5,316.5C 446.5,316.5 453.5,316.5 460.5,316.5C 460.667,303.163 460.5,289.829 460,276.5C 459.879,272.958 458.713,269.958 456.5,267.5C 449.7,258.971 440.7,255.637 429.5,257.5C 424.524,257.238 420.691,259.238 418,263.5C 417.505,261.527 417.338,259.527 417.5,257.5C 410.833,257.5 404.167,257.5 397.5,257.5C 396.833,257.5 396.5,257.167 396.5,256.5C 395.457,254.148 394.124,253.981 392.5,256C 388.833,256.333 385.167,256.667 381.5,257C 387.392,259.892 391.559,264.392 394,270.5C 394.176,266.312 394.676,262.312 395.5,258.5C 396.522,276.585 396.522,294.919 395.5,313.5C 394.833,301.674 394.167,290.007 393.5,278.5C 393.038,271.712 390.038,266.379 384.5,262.5C 382.996,260.164 380.996,258.331 378.5,257C 374.532,256.058 370.532,255.225 366.5,254.5C 367.851,252.981 369.351,251.648 371,250.5C 371.567,254.243 373.4,255.243 376.5,253.5C 381.833,253.5 387.167,253.5 392.5,253.5C 392.855,238.464 392.355,223.464 391,208.5C 388.187,201.185 383.02,196.518 375.5,194.5C 376.671,193.655 378.005,192.989 379.5,192.5C 386.942,195.787 391.775,201.453 394,209.5C 394.826,197.992 394.659,186.659 393.5,175.5C 393.12,173.302 393.787,171.635 395.5,170.5C 399.419,169.865 403.419,169.532 407.5,169.5C 411.595,169.542 415.429,170.208 419,171.5C 419.649,199.912 419.649,228.245 419,256.5C 421.242,257.175 423.409,256.675 425.5,255C 438.167,251.116 449,253.949 458,263.5C 461.212,269.059 462.712,275.059 462.5,281.5 Z M 396.5,256.5 C 395.662,256.842 395.328,257.508 395.5,258.5C 394.676,262.312 394.176,266.312 394,270.5C 391.559,264.392 387.392,259.892 381.5,257C 385.167,256.667 388.833,256.333 392.5,256C 394.124,253.981 395.457,254.148 396.5,256.5 Z"/></g>
<g><path style="opacity:0.499" fill="#62626d" d="M 396.5,172.5 C 403.5,172.5 410.5,172.5 417.5,172.5C 417.5,199.5 417.5,226.5 417.5,253.5C 410.5,253.5 403.5,253.5 396.5,253.5C 396.5,226.5 396.5,199.5 396.5,172.5 Z"/></g>
<g><path style="opacity:0.996" fill="#353749" d="M 397.5,173.5 C 403.833,173.5 410.167,173.5 416.5,173.5C 416.5,199.5 416.5,225.5 416.5,251.5C 410.167,251.5 403.833,251.5 397.5,251.5C 397.5,225.5 397.5,199.5 397.5,173.5 Z"/></g>
<g><path style="opacity:0.259" fill="#a6a7b1" d="M 270.5,172.5 C 271.167,172.5 271.833,172.5 272.5,172.5C 272.5,220.5 272.5,268.5 272.5,316.5C 278.833,316.5 285.167,316.5 291.5,316.5C 285.021,317.491 278.354,317.824 271.5,317.5C 271.828,269.095 271.495,220.761 270.5,172.5 Z"/></g>
<g><path style="opacity:0.988" fill="#36394a" d="M 429.5,257.5 C 440.7,255.637 449.7,258.971 456.5,267.5C 457.949,272.028 458.783,276.695 459,281.5C 459.5,292.828 459.667,304.162 459.5,315.5C 453.167,315.5 446.833,315.5 440.5,315.5C 440.828,303.988 440.495,292.654 439.5,281.5C 435.683,274.478 430.016,272.645 422.5,276C 421.947,277.878 420.947,279.378 419.5,280.5C 417.955,281.23 417.122,282.563 417,284.5C 416.5,294.828 416.334,305.161 416.5,315.5C 410.5,315.5 404.5,315.5 398.5,315.5C 398.5,296.5 398.5,277.5 398.5,258.5C 404.5,258.5 410.5,258.5 416.5,258.5C 416.5,260.5 416.5,262.5 416.5,264.5C 420.599,261.735 424.933,259.401 429.5,257.5 Z"/></g>
<g><path style="opacity:0.427" fill="#95979e" d="M 180.5,254.5 C 180.345,263.074 179.345,271.408 177.5,279.5C 177.834,272.493 178.334,265.493 179,258.5C 179.21,256.942 179.71,255.609 180.5,254.5 Z"/></g>
<g><path style="opacity:0.122" fill="#babac0" d="M 200.5,198.5 C 200.73,209.579 200.063,220.579 198.5,231.5C 198.624,232.107 198.957,232.44 199.5,232.5C 199.5,233.167 199.5,233.833 199.5,234.5C 198.206,236.048 197.539,238.048 197.5,240.5C 196.476,251.148 195.809,261.815 195.5,272.5C 195.5,272.833 195.5,273.167 195.5,273.5C 194.728,274.694 193.728,275.694 192.5,276.5C 194.497,258.211 196.164,239.877 197.5,221.5C 198.872,213.877 199.872,206.21 200.5,198.5 Z"/></g>
<g><path style="opacity:0.102" fill="#aeaeb4" d="M 253.5,257.5 C 254.117,257.611 254.617,257.944 255,258.5C 257.62,272.714 259.453,287.047 260.5,301.5C 258.673,288.052 256.34,274.719 253.5,261.5C 253.5,260.167 253.5,258.833 253.5,257.5 Z"/></g>
<g><path style="opacity:0.016" fill="#fcfdfd" d="M 462.5,281.5 C 462.334,290.173 462.5,298.84 463,307.5C 463.273,305.671 464.107,304.171 465.5,303C 472.866,302.968 480.2,302.801 487.5,302.5C 489.689,302.594 491.689,303.261 493.5,304.5C 495.789,302.408 498.289,302.074 501,303.5C 502.15,306.658 503.317,309.825 504.5,313C 503.578,319.512 500.411,321.012 495,317.5C 493.941,317.63 493.108,318.13 492.5,319C 485.45,319.202 478.45,319.702 471.5,320.5C 467.973,319.92 464.64,318.92 461.5,317.5C 461.172,305.322 461.505,293.322 462.5,281.5 Z M 467.5,305.5 C 469.787,305.724 471.953,306.391 474,307.5C 475.784,306.691 477.617,306.024 479.5,305.5C 482.13,305.536 484.797,305.536 487.5,305.5C 489.773,306.279 491.606,307.612 493,309.5C 494.944,308.561 496.611,307.227 498,305.5C 499.128,308.207 500.628,310.707 502.5,313C 500.248,317.442 497.582,317.609 494.5,313.5C 492.527,314.64 490.693,315.973 489,317.5C 488.333,316.833 487.667,316.167 487,315.5C 484.333,316.167 481.667,316.833 479,317.5C 476.534,316.212 474.034,316.212 471.5,317.5C 469.878,315.561 468.044,315.228 466,316.5C 466.463,314.474 467.296,312.474 468.5,310.5C 466.816,308.923 466.482,307.257 467.5,305.5 Z M 462.5,308.5 C 464.765,309.94 464.932,311.607 463,313.5C 462.506,311.866 462.34,310.199 462.5,308.5 Z"/></g>
<g><path style="opacity:0.482" fill="#686974" d="M 456.5,267.5 C 458.713,269.958 459.879,272.958 460,276.5C 460.5,289.829 460.667,303.163 460.5,316.5C 453.5,316.5 446.5,316.5 439.5,316.5C 439.5,304.833 439.5,293.167 439.5,281.5C 440.495,292.654 440.828,303.988 440.5,315.5C 446.833,315.5 453.167,315.5 459.5,315.5C 459.667,304.162 459.5,292.828 459,281.5C 458.783,276.695 457.949,272.028 456.5,267.5 Z"/></g>
<g><path style="opacity:0.859" fill="#5f606c" d="M 397.5,257.5 C 404.167,257.5 410.833,257.5 417.5,257.5C 417.338,259.527 417.505,261.527 418,263.5C 420.691,259.238 424.524,257.238 429.5,257.5C 424.933,259.401 420.599,261.735 416.5,264.5C 416.5,262.5 416.5,260.5 416.5,258.5C 410.5,258.5 404.5,258.5 398.5,258.5C 398.5,277.5 398.5,296.5 398.5,315.5C 404.5,315.5 410.5,315.5 416.5,315.5C 416.334,305.161 416.5,294.828 417,284.5C 417.122,282.563 417.955,281.23 419.5,280.5C 418.521,292.42 418.188,304.42 418.5,316.5C 411.5,316.5 404.5,316.5 397.5,316.5C 397.5,296.833 397.5,277.167 397.5,257.5 Z"/></g>
<g><path style="opacity:0.098" fill="#e2e3e5" d="M 206.5,116.5 C 205.883,116.611 205.383,116.944 205,117.5C 204.819,114.305 204.319,111.305 203.5,108.5C 203.662,106.473 203.495,104.473 203,102.5C 201.513,101.259 200.68,101.759 200.5,104C 196.261,116.641 192.761,129.475 190,142.5C 186.501,179.836 183.334,217.169 180.5,254.5C 179.71,255.609 179.21,256.942 179,258.5C 178.334,265.493 177.834,272.493 177.5,279.5C 175.775,294.793 174.442,310.127 173.5,325.5C 172.427,346.954 170.26,368.287 167,389.5C 166.17,395.196 166.337,400.863 167.5,406.5C 173.174,404.33 178.508,401.496 183.5,398C 192.32,396.787 200.986,395.287 209.5,393.5C 216.06,393.445 222.393,394.612 228.5,397C 234.753,400.951 240.919,405.118 247,409.5C 247.167,409 247.333,408.5 247.5,408C 245.915,406.075 244.748,403.909 244,401.5C 240.019,398.687 236.519,395.353 233.5,391.5C 218.211,381.5 201.544,378.5 183.5,382.5C 185.992,348.805 188.992,315.138 192.5,281.5C 192.5,279.833 192.5,278.167 192.5,276.5C 193.728,275.694 194.728,274.694 195.5,273.5C 192.898,308.532 189.898,343.532 186.5,378.5C 214.957,374.316 236.791,384.316 252,408.5C 252.635,410.635 252.301,412.635 251,414.5C 250.282,415.451 249.449,415.617 248.5,415C 224.85,392.778 199.183,390.444 171.5,408C 169.26,408.977 166.927,409.477 164.5,409.5C 164.592,393.132 165.426,376.799 167,360.5C 174.282,289.557 180.948,218.557 187,147.5C 191.144,131.57 194.977,115.57 198.5,99.5C 201.388,96.7375 203.888,97.0709 206,100.5C 206.499,105.823 206.666,111.156 206.5,116.5 Z"/></g>
<g><path style="opacity:0.018" fill="#fefffe" d="M 477.5,309.5 C 478.586,309.62 479.253,310.287 479.5,311.5C 479.167,312.167 478.833,312.833 478.5,313.5C 477.571,312.311 477.238,310.978 477.5,309.5 Z"/></g>
<g><path style="opacity:0.015" fill="#fefffe" d="M 483.5,309.5 C 484.5,309.5 485.5,309.5 486.5,309.5C 486.778,311.346 486.111,312.68 484.5,313.5C 483.571,312.311 483.238,310.978 483.5,309.5 Z"/></g>
<g><path style="opacity:0.014" fill="#dbdce0" d="M 270.5,172.5 C 271.495,220.761 271.828,269.095 271.5,317.5C 278.354,317.824 285.021,317.491 291.5,316.5C 292.29,315.391 292.79,314.058 293,312.5C 294.214,314.049 295.714,315.215 297.5,316C 307.254,318.765 316.254,317.598 324.5,312.5C 325.552,312.649 326.552,312.483 327.5,312C 330.045,309.624 332.378,307.124 334.5,304.5C 335.141,305.993 336.141,306.993 337.5,307.5C 343.544,316.994 352.21,320.161 363.5,317C 367.313,316.287 370.313,314.454 372.5,311.5C 372.56,310.957 372.893,310.624 373.5,310.5C 374.466,312.396 374.799,314.396 374.5,316.5C 380.833,316.5 387.167,316.5 393.5,316.5C 393.5,303.833 393.5,291.167 393.5,278.5C 394.167,290.007 394.833,301.674 395.5,313.5C 396.522,294.919 396.522,276.585 395.5,258.5C 395.328,257.508 395.662,256.842 396.5,256.5C 396.5,257.167 396.833,257.5 397.5,257.5C 397.5,277.167 397.5,296.833 397.5,316.5C 404.5,316.5 411.5,316.5 418.5,316.5C 418.188,304.42 418.521,292.42 419.5,280.5C 420.947,279.378 421.947,277.878 422.5,276C 430.016,272.645 435.683,274.478 439.5,281.5C 439.5,293.167 439.5,304.833 439.5,316.5C 438.67,306.008 438.17,295.341 438,284.5C 437.8,282.68 436.966,281.347 435.5,280.5C 433.282,277.613 430.282,276.779 426.5,278C 424.43,278.948 422.93,280.448 422,282.5C 421.667,293.833 421.333,305.167 421,316.5C 420.308,317.025 419.808,317.692 419.5,318.5C 407.603,319.13 395.77,319.463 384,319.5C 380.5,319.333 377,319.167 373.5,319C 372.667,318.167 371.833,317.333 371,316.5C 360.449,321.957 349.949,321.623 339.5,315.5C 337.476,313.31 335.643,310.977 334,308.5C 323.104,320.414 310.104,323.414 295,317.5C 293.941,317.63 293.108,318.13 292.5,319C 285.45,319.797 278.45,319.63 271.5,318.5C 270.808,317.975 270.308,317.308 270,316.5C 269.168,268.332 269.335,220.332 270.5,172.5 Z M 360.5,295.5 C 363.898,295.18 367.232,295.513 370.5,296.5C 366.708,301.876 362.375,302.543 357.5,298.5C 358.34,297.265 359.34,296.265 360.5,295.5 Z M 300.5,276.5 C 298.832,278.34 297.332,280.34 296,282.5C 294.058,288.89 295.891,293.723 301.5,297C 306.117,298.297 309.95,297.13 313,293.5C 316.565,281.928 312.398,276.261 300.5,276.5 Z M 357.5,275.5 C 353.646,276.291 349.979,277.791 346.5,280C 353.71,278.922 361.043,278.255 368.5,278C 364.969,276.594 361.302,275.76 357.5,275.5 Z M 338.5,273.5 C 338.899,276.696 339.899,279.696 341.5,282.5C 342.795,281.902 344.128,281.402 345.5,281C 342.133,279.407 339.799,276.907 338.5,273.5 Z"/></g>
<g><path style="opacity:0.282" fill="#7d7d89" d="M 336.5,300.5 C 336.448,302.903 336.781,305.236 337.5,307.5C 336.141,306.993 335.141,305.993 334.5,304.5C 332.378,307.124 330.045,309.624 327.5,312C 326.552,312.483 325.552,312.649 324.5,312.5C 324.5,312.167 324.5,311.833 324.5,311.5C 329.168,308.425 333.168,304.758 336.5,300.5 Z"/></g>
<g><path style="opacity:0.031" fill="#e7e8ea" d="M 369.5,302.5 C 364.848,303.762 360.181,303.762 355.5,302.5C 355.107,299.487 355.774,296.82 357.5,294.5C 362.103,293.617 366.77,293.283 371.5,293.5C 371.79,296.785 371.123,299.785 369.5,302.5 Z M 360.5,295.5 C 359.34,296.265 358.34,297.265 357.5,298.5C 362.375,302.543 366.708,301.876 370.5,296.5C 367.232,295.513 363.898,295.18 360.5,295.5 Z"/></g>
<g><path style="opacity:0.996" fill="#3d3f4f" d="M 369.5,257.5 C 361.082,257.283 352.749,257.95 344.5,259.5C 344.33,260.822 344.663,261.989 345.5,263C 342.139,264.426 341.639,266.593 344,269.5C 347.517,272.497 349.683,271.664 350.5,267C 349.66,265.334 350.16,265.167 352,266.5C 352.333,265.833 352.667,265.167 353,264.5C 358.668,269.228 365.168,270.895 372.5,269.5C 373.624,270.914 374.624,272.414 375.5,274C 373.773,276.904 373.107,280.07 373.5,283.5C 364.432,283.119 355.432,283.619 346.5,285C 348.769,286.724 351.103,286.724 353.5,285C 358.167,284.333 362.833,284.333 367.5,285C 367.833,286 368.167,287 368.5,288C 370.085,288.085 371.418,288.251 372.5,288.5C 367.668,288.652 363.168,288.985 359,289.5C 358.667,288.833 358.333,288.167 358,287.5C 357.333,288.833 357.333,290.167 358,291.5C 360.578,290.859 363.245,290.525 366,290.5C 368.929,290.525 371.429,291.191 373.5,292.5C 368.489,292.334 363.489,292.501 358.5,293C 357.944,293.383 357.611,293.883 357.5,294.5C 355.774,296.82 355.107,299.487 355.5,302.5C 360.181,303.762 364.848,303.762 369.5,302.5C 371.194,301.473 372.527,300.139 373.5,298.5C 372.612,301.243 371.445,303.91 370,306.5C 368.938,305.903 367.772,305.57 366.5,305.5C 364.157,306.477 361.99,307.81 360,309.5C 357.608,308.672 355.775,306.672 354.5,303.5C 353.808,304.025 353.308,304.692 353,305.5C 352.781,304.062 352.281,302.729 351.5,301.5C 350.011,301.533 348.678,302.033 347.5,303C 349.709,303.957 349.543,305.124 347,306.5C 346.5,306 346,305.5 345.5,305C 346.554,303.612 346.72,302.112 346,300.5C 344.951,302.107 343.451,302.773 341.5,302.5C 342.833,304.833 342.833,307.167 341.5,309.5C 343.124,309.36 344.29,310.027 345,311.5C 346.507,310.495 347.673,309.162 348.5,307.5C 348.153,309.14 348.653,310.807 350,312.5C 351.512,310.043 352.846,310.043 354,312.5C 357.822,311.164 361.322,311.83 364.5,314.5C 366.711,312.318 369.378,311.318 372.5,311.5C 370.313,314.454 367.313,316.287 363.5,317C 352.21,320.161 343.544,316.994 337.5,307.5C 336.781,305.236 336.448,302.903 336.5,300.5C 338.484,300.617 340.15,299.95 341.5,298.5C 340.635,295.7 339.135,293.367 337,291.5C 336.667,288.5 336.333,285.5 336,282.5C 335.079,278.769 332.913,276.269 329.5,275C 330.791,272.91 330.124,271.576 327.5,271C 329.399,267.319 328.399,264.819 324.5,263.5C 323.468,265.04 322.135,265.54 320.5,265C 320.957,264.586 321.291,264.086 321.5,263.5C 319.429,261.815 317.429,260.148 315.5,258.5C 317.527,258.338 319.527,258.505 321.5,259C 323.222,261.511 325.555,263.011 328.5,263.5C 331.223,266.062 333.389,269.062 335,272.5C 336.477,277.765 337.644,283.099 338.5,288.5C 339.992,286.844 341.658,285.344 343.5,284C 353.053,281.914 362.72,281.08 372.5,281.5C 372.673,277.83 371.007,275.33 367.5,274C 362.167,273.333 356.833,273.333 351.5,274C 348.89,275.481 346.223,276.648 343.5,277.5C 342.523,273.071 340.856,268.904 338.5,265C 339.939,261.278 342.606,258.945 346.5,258C 354.3,256.443 361.967,256.277 369.5,257.5 Z M 357.5,275.5 C 353.646,276.291 349.979,277.791 346.5,280C 353.71,278.922 361.043,278.255 368.5,278C 364.969,276.594 361.302,275.76 357.5,275.5 Z M 338.5,273.5 C 338.899,276.696 339.899,279.696 341.5,282.5C 342.795,281.902 344.128,281.402 345.5,281C 342.133,279.407 339.799,276.907 338.5,273.5 Z"/></g>
<g><path style="opacity:0.2" fill="#9a9ba5" d="M 373.5,292.5 C 373.5,294.5 373.5,296.5 373.5,298.5C 372.527,300.139 371.194,301.473 369.5,302.5C 371.123,299.785 371.79,296.785 371.5,293.5C 366.77,293.283 362.103,293.617 357.5,294.5C 357.611,293.883 357.944,293.383 358.5,293C 363.489,292.501 368.489,292.334 373.5,292.5 Z"/></g>
<g><path style="opacity:0.059" fill="#d8d9dd" d="M 299.5,273.5 C 313.032,272.865 318.532,279.198 316,292.5C 313.399,299.047 308.565,301.547 301.5,300C 298.452,299.394 295.952,297.894 294,295.5C 292.508,290.589 292.174,285.589 293,280.5C 294.694,277.642 296.861,275.309 299.5,273.5 Z M 300.5,276.5 C 298.832,278.34 297.332,280.34 296,282.5C 294.058,288.89 295.891,293.723 301.5,297C 306.117,298.297 309.95,297.13 313,293.5C 316.565,281.928 312.398,276.261 300.5,276.5 Z"/></g>
<g><path style="opacity:0.996" fill="#37394c" d="M 369.5,257.5 C 375.035,257.79 380.035,259.456 384.5,262.5C 390.038,266.379 393.038,271.712 393.5,278.5C 393.5,291.167 393.5,303.833 393.5,316.5C 387.167,316.5 380.833,316.5 374.5,316.5C 374.799,314.396 374.466,312.396 373.5,310.5C 372.893,310.624 372.56,310.957 372.5,311.5C 369.378,311.318 366.711,312.318 364.5,314.5C 361.322,311.83 357.822,311.164 354,312.5C 352.846,310.043 351.512,310.043 350,312.5C 348.653,310.807 348.153,309.14 348.5,307.5C 347.673,309.162 346.507,310.495 345,311.5C 344.29,310.027 343.124,309.36 341.5,309.5C 342.833,307.167 342.833,304.833 341.5,302.5C 343.451,302.773 344.951,302.107 346,300.5C 346.72,302.112 346.554,303.612 345.5,305C 346,305.5 346.5,306 347,306.5C 349.543,305.124 349.709,303.957 347.5,303C 348.678,302.033 350.011,301.533 351.5,301.5C 352.281,302.729 352.781,304.062 353,305.5C 353.308,304.692 353.808,304.025 354.5,303.5C 355.775,306.672 357.608,308.672 360,309.5C 361.99,307.81 364.157,306.477 366.5,305.5C 367.772,305.57 368.938,305.903 370,306.5C 371.445,303.91 372.612,301.243 373.5,298.5C 373.5,296.5 373.5,294.5 373.5,292.5C 371.429,291.191 368.929,290.525 366,290.5C 363.245,290.525 360.578,290.859 358,291.5C 357.333,290.167 357.333,288.833 358,287.5C 358.333,288.167 358.667,288.833 359,289.5C 363.168,288.985 367.668,288.652 372.5,288.5C 371.418,288.251 370.085,288.085 368.5,288C 368.167,287 367.833,286 367.5,285C 362.833,284.333 358.167,284.333 353.5,285C 351.103,286.724 348.769,286.724 346.5,285C 355.432,283.619 364.432,283.119 373.5,283.5C 373.107,280.07 373.773,276.904 375.5,274C 374.624,272.414 373.624,270.914 372.5,269.5C 365.168,270.895 358.668,269.228 353,264.5C 352.667,265.167 352.333,265.833 352,266.5C 350.16,265.167 349.66,265.334 350.5,267C 349.683,271.664 347.517,272.497 344,269.5C 341.639,266.593 342.139,264.426 345.5,263C 344.663,261.989 344.33,260.822 344.5,259.5C 352.749,257.95 361.082,257.283 369.5,257.5 Z"/></g>
<g><path style="opacity:0.459" fill="#8e8f98" d="M 328.5,260.5 C 328.5,261.5 328.5,262.5 328.5,263.5C 325.555,263.011 323.222,261.511 321.5,259C 319.527,258.505 317.527,258.338 315.5,258.5C 311.468,257.234 307.468,257.234 303.5,258.5C 300.215,258.21 297.215,258.877 294.5,260.5C 294.953,259.542 295.619,258.708 296.5,258C 307.52,255.667 318.186,256.501 328.5,260.5 Z"/></g>
<g><path style="opacity:0.025" fill="#ecedee" d="M 253.5,241.5 C 260.708,282.237 267.042,323.237 272.5,364.5C 271.833,364.5 271.167,364.5 270.5,364.5C 269.596,363.791 269.263,362.791 269.5,361.5C 269.059,352.562 267.726,343.896 265.5,335.5C 264.268,324.066 262.601,312.733 260.5,301.5C 259.453,287.047 257.62,272.714 255,258.5C 254.617,257.944 254.117,257.611 253.5,257.5C 252.961,252.075 252.961,246.742 253.5,241.5 Z"/></g>
<g><path style="opacity:0.329" fill="#888a92" d="M 265.5,335.5 C 267.726,343.896 269.059,352.562 269.5,361.5C 268.213,360.129 267.547,358.295 267.5,356C 266.709,349.172 266.042,342.339 265.5,335.5 Z"/></g>
<g><path style="opacity:0.016" fill="#dddde0" d="M 298.5,407.5 C 301.902,404.033 306.236,402.199 311.5,402C 312.056,401.617 312.389,401.117 312.5,400.5C 313.973,399.928 315.307,399.095 316.5,398C 341.532,391.305 366.199,383.805 390.5,375.5C 393.097,374.376 395.43,373.043 397.5,371.5C 397.833,371.5 398.167,371.5 398.5,371.5C 406.519,370.805 413.852,368.305 420.5,364C 431.546,362.325 441.546,358.325 450.5,352C 465.375,345.932 480.375,340.265 495.5,335C 496.833,334 498.167,333 499.5,332C 487.82,333.487 476.154,335.487 464.5,338C 445.88,343.856 427.213,349.023 408.5,353.5C 403.15,355.042 397.817,357.209 392.5,360C 379.919,363.685 367.253,367.185 354.5,370.5C 349.328,371.66 344.162,372.994 339,374.5C 336.917,375.231 335.084,376.231 333.5,377.5C 319.836,382.161 306.17,386.828 292.5,391.5C 286.933,393.108 281.267,394.441 275.5,395.5C 275.263,394.209 275.596,393.209 276.5,392.5C 321.864,378.324 367.197,363.824 412.5,349C 443.75,340.687 475.083,333.02 506.5,326C 508.444,330.035 507.444,333.035 503.5,335C 475.701,345.735 448.034,356.735 420.5,368C 379.924,381.803 339.257,394.97 298.5,407.5 Z"/></g>
<g><path style="opacity:0.984" fill="#434553" d="M 398.5,371.5 C 399.476,370.185 400.476,368.852 401.5,367.5C 403.912,368.818 406.246,368.651 408.5,367C 408.167,366.667 407.833,366.333 407.5,366C 411.334,364.05 415.334,362.217 419.5,360.5C 420.452,358.955 420.785,357.288 420.5,355.5C 418.088,355.756 416.421,354.756 415.5,352.5C 413.253,353.374 410.92,353.708 408.5,353.5C 427.213,349.023 445.88,343.856 464.5,338C 476.154,335.487 487.82,333.487 499.5,332C 498.167,333 496.833,334 495.5,335C 480.375,340.265 465.375,345.932 450.5,352C 441.546,358.325 431.546,362.325 420.5,364C 413.852,368.305 406.519,370.805 398.5,371.5 Z"/></g>
<g><path style="opacity:0.996" fill="#3a3c4d" d="M 253.5,261.5 C 256.34,274.719 258.673,288.052 260.5,301.5C 262.601,312.733 264.268,324.066 265.5,335.5C 266.042,342.339 266.709,349.172 267.5,356C 267.547,358.295 268.213,360.129 269.5,361.5C 269.263,362.791 269.596,363.791 270.5,364.5C 272.153,375.093 273.153,385.759 273.5,396.5C 280.374,396.465 286.707,394.798 292.5,391.5C 306.17,386.828 319.836,382.161 333.5,377.5C 334.833,377.5 336.167,377.5 337.5,377.5C 338.854,380.087 337.854,381.421 334.5,381.5C 332.199,380.604 329.866,380.438 327.5,381C 325.271,382.485 322.938,383.818 320.5,385C 321.833,385.667 321.833,386.333 320.5,387C 317.833,388 315.167,389 312.5,390C 311.167,391 311.167,392 312.5,393C 311.086,394.548 309.42,395.215 307.5,395C 308.167,394.333 308.833,393.667 309.5,393C 306.729,390.272 304.895,390.439 304,393.5C 301.466,392.48 298.633,392.48 295.5,393.5C 294.856,397.372 296.689,399.372 301,399.5C 303.141,398.888 305.141,398.888 307,399.5C 310.303,398.816 313.136,397.316 315.5,395C 322.525,393.759 329.525,392.425 336.5,391C 341.892,387.311 347.892,384.644 354.5,383C 354.167,382.667 353.833,382.333 353.5,382C 356.446,379.775 359.78,378.609 363.5,378.5C 363.67,377.178 363.337,376.011 362.5,375C 363.5,373 364.5,373 365.5,375C 365.167,375.333 364.833,375.667 364.5,376C 370.767,378.532 376.267,377.366 381,372.5C 384.184,374.836 386.684,374.503 388.5,371.5C 391.474,372.577 394.474,372.577 397.5,371.5C 395.43,373.043 393.097,374.376 390.5,375.5C 366.199,383.805 341.532,391.305 316.5,398C 315.307,399.095 313.973,399.928 312.5,400.5C 301.182,403.663 289.849,406.83 278.5,410C 273.851,413.717 268.518,415.55 262.5,415.5C 258.577,383.039 253.91,350.706 248.5,318.5C 251.229,322.285 253.562,326.452 255.5,331C 255.167,332.667 254.833,334.333 254.5,336C 255.756,337.845 256.756,339.845 257.5,342C 256.861,344.525 256.861,346.858 257.5,349C 258.893,350.171 259.727,351.671 260,353.5C 260.246,350.11 260.746,346.777 261.5,343.5C 261.247,336.903 261.247,330.236 261.5,323.5C 260.98,320.128 259.647,317.128 257.5,314.5C 258.471,313.038 258.138,311.705 256.5,310.5C 258.089,304.194 257.089,298.361 253.5,293C 254.437,282.567 254.437,272.067 253.5,261.5 Z"/></g>
<g><path style="opacity:0.029" fill="#fcfcfd" d="M 272.5,365.5 C 274.67,374.024 276.004,382.69 276.5,391.5C 275.883,391.389 275.383,391.056 275,390.5C 274.358,382.735 273.191,375.068 271.5,367.5C 271.543,366.584 271.876,365.917 272.5,365.5 Z"/></g>
<g><path style="opacity:0.995" fill="#3c3e4f" d="M 192.5,281.5 C 188.992,315.138 185.992,348.805 183.5,382.5C 201.544,378.5 218.211,381.5 233.5,391.5C 236.519,395.353 240.019,398.687 244,401.5C 244.748,403.909 245.915,406.075 247.5,408C 247.333,408.5 247.167,409 247,409.5C 240.919,405.118 234.753,400.951 228.5,397C 222.393,394.612 216.06,393.445 209.5,393.5C 200.986,395.287 192.32,396.787 183.5,398C 178.508,401.496 173.174,404.33 167.5,406.5C 166.337,400.863 166.17,395.196 167,389.5C 170.26,368.287 172.427,346.954 173.5,325.5C 173.833,325.5 174.167,325.5 174.5,325.5C 174.253,331.541 174.586,337.541 175.5,343.5C 173.53,349.587 173.53,355.754 175.5,362C 175.604,364.145 174.937,365.979 173.5,367.5C 174.376,368.251 175.376,368.751 176.5,369C 174.018,370.594 173.852,372.428 176,374.5C 179.521,368.944 181.688,362.777 182.5,356C 180.648,352.351 180.148,348.518 181,344.5C 183.319,337.501 185.319,330.168 187,322.5C 188.938,309.334 190.272,296.001 191,282.5C 191.383,281.944 191.883,281.611 192.5,281.5 Z"/></g>
<g><path style="opacity:0.388" fill="#acacb4" d="M 354.5,370.5 C 348.938,372.98 343.271,375.313 337.5,377.5C 336.167,377.5 334.833,377.5 333.5,377.5C 335.084,376.231 336.917,375.231 339,374.5C 344.162,372.994 349.328,371.66 354.5,370.5 Z"/></g>
<g><path style="opacity:0.996" fill="#36384b" d="M 398.5,371.5 C 398.167,371.5 397.833,371.5 397.5,371.5C 394.474,372.577 391.474,372.577 388.5,371.5C 386.684,374.503 384.184,374.836 381,372.5C 376.267,377.366 370.767,378.532 364.5,376C 364.833,375.667 365.167,375.333 365.5,375C 364.5,373 363.5,373 362.5,375C 363.337,376.011 363.67,377.178 363.5,378.5C 359.78,378.609 356.446,379.775 353.5,382C 353.833,382.333 354.167,382.667 354.5,383C 347.892,384.644 341.892,387.311 336.5,391C 329.525,392.425 322.525,393.759 315.5,395C 313.136,397.316 310.303,398.816 307,399.5C 305.141,398.888 303.141,398.888 301,399.5C 296.689,399.372 294.856,397.372 295.5,393.5C 298.633,392.48 301.466,392.48 304,393.5C 304.895,390.439 306.729,390.272 309.5,393C 308.833,393.667 308.167,394.333 307.5,395C 309.42,395.215 311.086,394.548 312.5,393C 311.167,392 311.167,391 312.5,390C 315.167,389 317.833,388 320.5,387C 321.833,386.333 321.833,385.667 320.5,385C 322.938,383.818 325.271,382.485 327.5,381C 329.866,380.438 332.199,380.604 334.5,381.5C 337.854,381.421 338.854,380.087 337.5,377.5C 343.271,375.313 348.938,372.98 354.5,370.5C 367.253,367.185 379.919,363.685 392.5,360C 397.817,357.209 403.15,355.042 408.5,353.5C 410.92,353.708 413.253,353.374 415.5,352.5C 416.421,354.756 418.088,355.756 420.5,355.5C 420.785,357.288 420.452,358.955 419.5,360.5C 415.334,362.217 411.334,364.05 407.5,366C 407.833,366.333 408.167,366.667 408.5,367C 406.246,368.651 403.912,368.818 401.5,367.5C 400.476,368.852 399.476,370.185 398.5,371.5 Z"/></g>
<g><path style="opacity:0.302" fill="#aaaab3" d="M 270.5,364.5 C 271.167,364.5 271.833,364.5 272.5,364.5C 272.5,364.833 272.5,365.167 272.5,365.5C 271.876,365.917 271.543,366.584 271.5,367.5C 273.191,375.068 274.358,382.735 275,390.5C 275.383,391.056 275.883,391.389 276.5,391.5C 276.5,391.833 276.5,392.167 276.5,392.5C 275.596,393.209 275.263,394.209 275.5,395.5C 281.267,394.441 286.933,393.108 292.5,391.5C 286.707,394.798 280.374,396.465 273.5,396.5C 273.153,385.759 272.153,375.093 270.5,364.5 Z"/></g>
<g><path style="opacity:0.145" fill="#dddde0" d="M 426.5,80.5 C 422.627,82.4302 418.294,83.0969 413.5,82.5C 412.676,78.6877 412.176,74.6877 412,70.5C 410.115,64.2247 407.948,58.2247 405.5,52.5C 404.5,52.5 403.5,52.5 402.5,52.5C 401.986,50.6336 401.32,48.8003 400.5,47C 397.692,44.3933 395.359,41.3933 393.5,38C 365.804,13.9975 336.137,11.3308 304.5,30C 297.976,36.0234 291.976,42.5234 286.5,49.5C 286.047,53.6072 284.547,57.2739 282,60.5C 281.39,63.8273 280.89,67.1606 280.5,70.5C 279.883,70.6107 279.383,70.944 279,71.5C 278.501,77.4908 278.334,83.4908 278.5,89.5C 257.394,89.2809 236.394,90.4475 215.5,93C 214.368,97.4132 214.201,101.913 215,106.5C 216.283,111.251 217.45,115.918 218.5,120.5C 218.5,121.167 218.833,121.5 219.5,121.5C 221.583,134.389 223.083,147.389 224,160.5C 232.492,213.13 240.659,265.797 248.5,318.5C 253.91,350.706 258.577,383.039 262.5,415.5C 268.518,415.55 273.851,413.717 278.5,410C 289.849,406.83 301.182,403.663 312.5,400.5C 312.389,401.117 312.056,401.617 311.5,402C 306.236,402.199 301.902,404.033 298.5,407.5C 288.836,410.555 279.169,413.721 269.5,417C 266.007,418.004 262.841,417.504 260,415.5C 243.483,308.477 227.483,201.477 212,94.5C 212.465,93.0692 213.299,91.9025 214.5,91C 235.172,89.4071 255.839,87.7404 276.5,86C 276.544,50.6042 293.544,27.6042 327.5,17C 366.42,10.6525 394.253,25.1525 411,60.5C 413.281,67.0108 414.948,73.6775 416,80.5C 419.466,79.2833 422.966,79.2833 426.5,80.5 Z"/></g>
</svg>
