<?xml version="1.0" standalone="no"?>
<!DOCTYPE svg PUBLIC "-//W3C//DTD SVG 20010904//EN"
 "http://www.w3.org/TR/2001/REC-SVG-20010904/DTD/svg10.dtd">
<svg version="1.0" xmlns="http://www.w3.org/2000/svg"
 width="675.000000pt" height="426.000000pt" viewBox="0 0 675.000000 426.000000"
 preserveAspectRatio="xMidYMid meet">

<g transform="translate(0.000000,426.000000) scale(0.100000,-0.100000)"
fill="#000000" stroke="none">
<path d="M3375 4073 c-163 -34 -236 -63 -324 -127 -110 -81 -202 -214 -236
-342 -9 -32 -18 -99 -20 -149 -3 -75 -6 -91 -22 -96 -10 -4 -108 -13 -218 -19
-244 -13 -394 -26 -401 -33 -3 -3 6 -81 20 -174 14 -92 39 -258 56 -368 58
-386 101 -672 130 -865 16 -107 50 -330 75 -495 67 -444 82 -543 111 -730 14
-93 32 -215 40 -270 18 -133 45 -289 49 -294 4 -3 320 96 395 124 19 8 103 35
185 60 83 26 166 53 185 60 19 7 103 35 185 61 171 53 346 110 390 125 17 6
46 15 65 20 19 6 44 14 55 19 11 5 97 39 190 75 246 96 445 176 480 191 51 22
168 70 203 84 83 32 -10 17 -208 -35 -30 -8 -104 -26 -165 -40 -60 -14 -123
-30 -140 -35 -16 -5 -59 -16 -95 -24 -36 -8 -101 -24 -145 -36 -44 -12 -102
-28 -130 -35 -27 -7 -88 -26 -135 -43 -81 -28 -310 -103 -595 -193 -71 -23
-146 -47 -165 -54 -19 -8 -121 -41 -225 -74 -174 -56 -225 -69 -225 -57 0 6
-33 231 -55 371 -9 55 -24 159 -35 230 -11 72 -38 252 -60 400 -23 149 -50
326 -60 395 -10 69 -28 188 -40 265 -12 77 -30 196 -40 265 -10 69 -35 231
-54 360 -20 129 -47 309 -61 399 -14 90 -25 172 -25 182 0 17 8 19 68 19 37 0
149 7 250 16 101 9 185 14 187 12 2 -2 14 -68 26 -146 l23 -141 -25 -23 c-58
-56 -74 -104 -58 -179 17 -81 102 -149 185 -149 44 0 104 31 137 70 69 81 37
221 -62 272 -18 9 -34 18 -36 20 -4 4 -45 252 -45 273 0 11 13 15 53 15 28 0
95 5 147 10 52 6 199 17 325 25 127 8 282 21 345 30 63 8 129 14 146 15 l30 0
13 -97 c6 -54 14 -109 17 -123 4 -20 -3 -34 -29 -61 -48 -49 -65 -106 -49
-166 26 -95 89 -143 187 -143 173 0 237 203 101 315 -24 19 -48 35 -54 35 -6
0 -13 12 -16 28 -10 47 -37 235 -34 237 2 2 39 8 83 14 77 11 302 44 395 59
27 4 -64 9 -224 12 l-269 5 -17 85 c-23 113 -43 159 -107 257 -55 84 -130 160
-192 194 -20 11 -56 31 -80 44 -89 50 -275 86 -356 68z m255 -175 c117 -51
209 -125 266 -215 38 -58 84 -186 84 -232 l0 -31 -172 0 c-95 0 -218 -5 -273
-10 -153 -16 -587 -40 -596 -34 -14 8 -10 115 6 177 46 177 178 314 347 362
83 24 268 14 338 -17z"/>
<path d="M2001 3189 c-6 -24 -29 -116 -51 -204 -39 -162 -42 -181 -90 -710
-12 -121 -30 -312 -40 -425 -11 -113 -27 -279 -35 -370 -8 -91 -22 -232 -30
-315 -8 -82 -31 -319 -50 -525 -19 -206 -36 -388 -38 -403 -5 -36 1 -39 43
-17 159 82 239 104 380 104 119 1 186 -19 286 -86 40 -27 76 -53 79 -59 4 -5
11 -9 17 -9 13 0 -32 61 -91 123 -117 123 -321 188 -481 153 -36 -7 -67 -12
-69 -10 -5 5 29 406 55 655 8 75 21 210 29 300 8 90 28 308 45 484 16 176 39
417 50 535 11 118 25 257 31 309 11 96 -5 469 -21 500 -4 8 -11 -2 -19 -30z"/>
<path d="M2727 2523 c-4 -3 -7 -325 -7 -715 l0 -708 95 0 c95 0 95 0 95 25 0
30 4 31 40 5 38 -27 122 -43 178 -35 70 10 127 41 176 97 l43 50 22 -44 c27
-57 68 -86 138 -99 77 -14 139 -4 191 32 l42 30 0 -30 0 -31 96 0 96 0 -4 203
c-3 164 -7 209 -22 242 -24 55 -59 89 -120 116 -74 34 -233 34 -328 1 -36 -13
-68 -29 -71 -35 -4 -10 44 -121 57 -135 2 -1 20 7 40 19 28 17 53 21 112 22
67 0 78 -2 99 -24 13 -13 25 -33 27 -44 3 -19 -4 -20 -107 -27 -121 -7 -160
-16 -204 -47 -16 -12 -32 -21 -35 -21 -3 0 -6 20 -6 45 0 99 -65 202 -155 246
-22 11 -70 23 -106 26 -58 5 -74 2 -124 -21 -32 -14 -59 -26 -61 -26 -2 0 -4
53 -4 118 0 117 0 119 28 145 15 15 33 27 38 27 5 0 46 -45 89 -100 l79 -100
113 0 c76 0 113 4 113 11 0 10 -34 58 -82 114 -56 67 -158 202 -158 210 0 6
37 48 82 95 44 47 95 100 111 118 l31 32 -115 0 -114 0 -100 -94 c-55 -52
-103 -92 -107 -89 -5 2 -8 94 -8 204 l0 199 -93 0 c-52 0 -97 -3 -100 -7z
m401 -1027 c36 -33 37 -37 37 -103 0 -83 -21 -117 -79 -134 -54 -15 -97 -4
-132 32 -26 28 -29 37 -29 100 0 69 1 71 37 105 31 28 45 34 83 34 38 0 52 -6
83 -34z m600 -189 c2 -20 -5 -35 -27 -57 -24 -25 -38 -30 -75 -30 -33 0 -52 6
-66 20 -23 23 -24 33 -9 61 15 29 46 38 114 36 57 -2 60 -3 63 -30z"/>
<path d="M3970 2130 l0 -400 95 0 95 0 0 400 0 400 -95 0 -95 0 0 -400z"/>
<path d="M3590 2322 c-98 -10 -220 -48 -220 -67 0 -7 59 -125 63 -125 1 0 26
9 55 20 116 44 222 15 222 -61 0 -18 -8 -19 -109 -19 -125 0 -180 -17 -224
-69 -66 -79 -36 -201 63 -251 80 -40 187 -32 250 19 l39 31 3 -33 3 -32 90 0
90 0 0 200 c0 182 -2 204 -21 245 -25 53 -62 92 -107 113 -34 16 -155 34 -197
29z m128 -385 c3 -21 -5 -35 -28 -57 -53 -49 -142 -37 -150 20 -8 57 14 70
110 67 63 -2 65 -3 68 -30z"/>
<path d="M4266 1675 c-22 -8 -52 -23 -68 -35 l-28 -21 -6 31 -6 30 -89 0 -89
0 0 -290 0 -290 95 0 95 0 1 133 c0 184 8 224 50 259 48 41 108 39 143 -3 26
-30 26 -32 26 -210 l0 -179 101 0 101 0 -4 218 c-3 210 -4 218 -28 262 -53 94
-181 135 -294 95z"/>
<path d="M4660 1190 c-12 -8 -9 -10 13 -10 34 0 34 -16 0 -52 l-27 -28 45 1
c24 1 36 3 27 6 -21 5 -22 16 -6 42 23 37 -13 66 -52 41z"/>
<path d="M4751 1186 c-31 -37 9 -103 47 -80 36 23 23 94 -18 94 -10 0 -23 -6
-29 -14z m49 -36 c0 -23 -4 -30 -20 -30 -16 0 -20 7 -20 30 0 23 4 30 20 30
16 0 20 -7 20 -30z"/>
<path d="M4840 1190 c-11 -7 -7 -10 18 -10 39 0 40 -9 7 -40 -34 -32 -31 -40
13 -39 20 1 29 3 20 6 -22 5 -22 21 -3 47 25 34 -17 61 -55 36z"/>
<path d="M4947 1169 c-27 -35 -27 -49 2 -49 9 0 22 -5 27 -10 8 -8 15 -6 23 4
18 22 4 37 -27 29 l-26 -6 18 27 c26 40 13 43 -17 5z"/>
</g>
</svg>
