<?xml version="1.0" encoding="UTF-8"?>
<svg version="1.1" viewBox="0 0 2048 1292" width="1280" height="1280" xmlns="http://www.w3.org/2000/svg">
<path transform="translate(0)" d="m0 0h2048v1292h-2048z" fill="#FDFDFD"/>
<path transform="translate(1031,55)" d="m0 0h22l29 3 21 5 28 11 18 10 16 10 9 7 13 11 12 12 9 11 11 15 11 19 6 12 7 19 6 23 5 28v2h46l77 1 37 1 13 1v1l-33 4-87 13-44 6-4 1 7 50 4 24 1 4 9 4 11 7 8 7 8 13 5 12 2 13-1 12-5 12-8 13-8 7-15 9-14 3h-11l-12-3-16-9-10-9-8-11-5-12-2-14 1-13 5-14 7-10 7-7 6-2 1-7-6-36-5-36-21 2-36 5-54 5-159 11-31 2h-14l8 54 5 29 2 4 9 3 12 9 8 8 6 10 4 10 1 5v20l-3 12-6 10-9 10-10 7-11 4-9 2h-13l-15-4-10-5-11-9-8-11-5-10-3-15v-10l4-16 6-11 9-9 7-5-1-14-8-52-3-19-1-3-63 4-84 6h-6l7 45 10 65 8 54 8 52 9 60 8 54 11 71 16 107 6 38 8 55 13 83 9 62 13 84 6 40v5l14-4 53-17 49-16 37-12 50-16 70-23 41-13 88-29 37-10 99-25 67-16 32-8 62-15 6-1-2 2-29 12-26 11-34 14-32 13-50 20-122 48-42 14-35 11-145 47-96 31-35 11-33 11-43 14-13 4h-3l-6-36-12-81-9-58-16-107-7-45-7-47-10-66-6-40-8-53-14-92-10-66-17-114-10-64-6-42-9-58v-4l15-2 65-5 108-7 10-1-2-12v-22l3-25 5-21 8-21 11-22 12-17 12-14 11-11 8-7 8-6 13-9 20-11 24-9 23-6z" fill="#35384B"/>
<path transform="translate(828,524)" d="m0 0h60l1 1v118l1 7 27-27 8-7 21-21 6-5h72l-1 4-12 11-5 6-5 4-7 8-24 24-11 12-5 5 1 4 12 14 9 12 10 13 8 10 10 13 14 18 10 13 4 5h-76l-11-14-13-16-24-30-4 2-11 12-3 3-1 73 13-9 11-5 13-3h26l15 4 15 6 14 10 10 10 7 11 8 16 3 14 2 29 9-10 14-8 13-4 17-1 4-2 48-1-3-12-5-5-9-6-13-4h-12l-14 3-17 6-9 5h-4l-6-11-8-18-6-9 1-3 13-8 14-5 23-6 10-1h33l14 2 20 6 16 10 10 10 8 14 4 11 2 12 1 11v85l-1 19h-57v-20l-5 5-9 8-16 8-7 2-18 1-18-2-12-5-12-6-10-9-4-5-5-11-1-4v-11h-2l-1 5-6 11-15 16-8 6-16 8-13 5-15 2-21-1-10-3-17-9-7-6-3-1 1 15-1 1h-57l-1-1v-433z" fill="#35384B"/>
<path transform="translate(615,303)" d="m0 0h1l5 68 3 60v13l-13 131-10 110-16 168-8 86-8 83-8 86-5 53 33-8 6-1h21l28 5 21 6 18 8 13 7 14 10 14 12 11 12 11 14 10 15 5 8-1 4-7-8-9-9-12-9-14-10-16-9-19-8-23-5-7-1h-27l-42 6-19 5-15 6-20 10-22 12h-3l3-36 12-125 10-108 9-93 12-129 9-92 8-88 9-95 3-30 6-29 21-82 5-17z" fill="#35384B"/>
<path transform="translate(1032,99)" d="m0 0h18l23 3 26 6 12 5 22 12 17 12 23 23 14 20 11 23 7 22 5 24-1 4-75 1-47 3-142 10-45 3h-7l-1-2-1-11v-16l3-22 4-15 6-16 8-16 11-16 13-14 8-7 9-7 10-7 18-10 18-6 25-5z" fill="#FEFEFE"/>
<path transform="translate(1166,463)" d="m0 0h27l2 1 1 6v27l-5 25-8 19-10 16-7 7-8 7-14 9-18 8 13 3 16 7 10 6 9 8 7 11 6 14 3 16 1 12v81l-1 20h-56l-1-19-6 5-5 6-8 5-16 5-9 2h-20l-15-4-14-5-10-9-8-9-7-14-1-4v-19l3-10 5-9 6-7 12-9 17-6 14-2 20-1 37-1-2-10-6-8-9-6-7-2h-26l-13 3-13 6-8 4h-3l-5-11-6-14-5-8-2-9 5-4 20-8 19-5h9v-2l9-1 7-1 16-15 8-7 7-8 12-13 11-14 7-10 7-11 7-12-5 5-14 18-10 12-9 11-22 22-6 7-8 7-9 7-6-3-5-25v-15l4-16 8-16 7-9 11-11 10-7 11-6 18-7 16-4z" fill="#35384B"/>
<path transform="translate(1312,779)" d="m0 0h20l16 3 13 5 10 7 7 6 9 14 5 12 3 16v117h-61l-1-91-1-13-4-11-6-7-8-4-6-1h-8l-9 2-10 6-6 8-4 10-1 4-1 17-1 80h-61v-177h58l1 14 1 4 7-7 14-8 16-5z" fill="#35384B"/>
<path transform="translate(1204,524)" d="m0 0h61v242h-61z" fill="#35384B"/>
<path transform="translate(1166,463)" d="m0 0h27l2 1 1 6v27l-5 25-8 19-10 16-7 7-8 7-14 9-20 9h-35l-2-2 6-3 15-14 8-7 7-8 12-13 11-14 7-10 7-11 7-12-5 5-14 18-10 12-9 11-22 22-6 7-8 7-9 7-6-3-5-25v-15l4-16 8-16 7-9 11-11 10-7 11-6 18-7 16-4z" fill="#40B156"/>
<path transform="translate(984,496)" d="m0 0h16l14 3 15 5 9 5 14 11 9 12 7 15 2 10v14l-1 10h-3l-7-9-9-12-12-14-9-9-14-11-4-2 14 14 7 8 9 10 9 11 10 13 4 7v2l-8 2h-21l-14-4-13-9-8-8-8-13-5-12-3-12-1-8v-20z" fill="#40B156"/>
<path transform="translate(920,828)" d="m0 0h10l13 4 8 6 6 7 4 9 2 10v14l-3 11-4 8-7 8-14 7-3 1h-12l-10-3-9-6-7-8-5-13-1-5v-16l4-13 6-9 8-7 9-4z" fill="#FEFEFE"/>
<path transform="translate(1092,693)" d="m0 0h27l10 1v17l-5 8-8 7-8 3h-21l-8-4-4-6-1-3v-8l4-6 6-5z" fill="#FEFEFE"/>
<path transform="translate(1095,887)" d="m0 0h37v15l-3 7-8 8-10 5-6 1h-10l-9-3-6-5-3-8 1-9 6-7z" fill="#FEFEFE"/>
<path transform="translate(1448,927)" d="m0 0h9l5 4 3 9v8l-4 8-5 3h-9l-5-5-3-6v-11l5-8z" fill="#35394B"/>
<path transform="translate(1420,927)" d="m0 0h9l5 4 1 2v6l-4 6-8 8h13l1 5-1 1h-22l-2-2 3-5 11-11 2-4v-3h-9l-6 1-1-4z" fill="#35394B"/>
<path transform="translate(1509,927)" d="m0 0h5v3l-10 13-1 3h6l5-7h2v4h2v3l4 1 1 3-6 8-6 1-1-6h-11l-5-2 1-6 8-11z" fill="#363A4C"/>
<path transform="translate(1474,927)" d="m0 0h9l6 4 1 2v7l-7 9-5 5 13-1 1 5-5 1h-19l-1-3 2-3h2l2-4 9-8 1-7-7-1-2 1h-7l2-4z" fill="#353A4B"/>
<path transform="translate(1449,933)" d="m0 0h7l3 6v9l-5 6-6-1-3-6v-9l2-4z" fill="#FEFEFE"/>
<path transform="translate(1083,854)" d="m0 0h26v3l-7-1h-23z" fill="#38634E"/>
</svg>
